G04 #@! TF.GenerationSoftware,KiCad,Pcbnew,5.0.2-bee76a0~70~ubuntu18.04.1*
G04 #@! TF.CreationDate,2019-06-06T20:44:49+02:00*
G04 #@! TF.ProjectId,dmxBridge,646d7842-7269-4646-9765-2e6b69636164,rev?*
G04 #@! TF.SameCoordinates,Original*
G04 #@! TF.FileFunction,Copper,L2,Bot*
G04 #@! TF.FilePolarity,Positive*
%FSLAX46Y46*%
G04 Gerber Fmt 4.6, Leading zero omitted, Abs format (unit mm)*
G04 Created by KiCad (PCBNEW 5.0.2-bee76a0~70~ubuntu18.04.1) date Thu 06 Jun 2019 20:44:49 CEST*
%MOMM*%
%LPD*%
G01*
G04 APERTURE LIST*
G04 #@! TA.AperFunction,ComponentPad*
%ADD10C,0.800000*%
G04 #@! TD*
G04 #@! TA.AperFunction,ComponentPad*
%ADD11C,7.000000*%
G04 #@! TD*
G04 #@! TA.AperFunction,ComponentPad*
%ADD12O,1.600000X1.600000*%
G04 #@! TD*
G04 #@! TA.AperFunction,ComponentPad*
%ADD13R,1.600000X1.600000*%
G04 #@! TD*
G04 #@! TA.AperFunction,ComponentPad*
%ADD14R,3.000000X3.000000*%
G04 #@! TD*
G04 #@! TA.AperFunction,ComponentPad*
%ADD15C,3.000000*%
G04 #@! TD*
G04 #@! TA.AperFunction,ComponentPad*
%ADD16R,1.700000X1.700000*%
G04 #@! TD*
G04 #@! TA.AperFunction,ComponentPad*
%ADD17O,1.700000X1.700000*%
G04 #@! TD*
G04 #@! TA.AperFunction,ViaPad*
%ADD18C,0.800000*%
G04 #@! TD*
G04 #@! TA.AperFunction,Conductor*
%ADD19C,0.750000*%
G04 #@! TD*
G04 #@! TA.AperFunction,Conductor*
%ADD20C,0.500000*%
G04 #@! TD*
G04 #@! TA.AperFunction,Conductor*
%ADD21C,0.254000*%
G04 #@! TD*
G04 APERTURE END LIST*
D10*
G04 #@! TO.P,,1*
G04 #@! TO.N,N/C*
X61856155Y-60643845D03*
X60000000Y-59875000D03*
X58143845Y-60643845D03*
X57375000Y-62500000D03*
X58143845Y-64356155D03*
X60000000Y-65125000D03*
X61856155Y-64356155D03*
X62625000Y-62500000D03*
D11*
X60000000Y-62500000D03*
G04 #@! TD*
D12*
G04 #@! TO.P,A1,32*
G04 #@! TO.N,Net-(A1-Pad32)*
X51240000Y-22360000D03*
G04 #@! TO.P,A1,31*
G04 #@! TO.N,Net-(A1-Pad31)*
X51240000Y-24900000D03*
D13*
G04 #@! TO.P,A1,1*
G04 #@! TO.N,Net-(A1-Pad1)*
X99500000Y-31500000D03*
D12*
G04 #@! TO.P,A1,17*
G04 #@! TO.N,Net-(A1-Pad17)*
X51240000Y-61980000D03*
G04 #@! TO.P,A1,2*
G04 #@! TO.N,Net-(A1-Pad2)*
X99500000Y-34040000D03*
G04 #@! TO.P,A1,18*
G04 #@! TO.N,Net-(A1-Pad18)*
X51240000Y-59440000D03*
G04 #@! TO.P,A1,3*
G04 #@! TO.N,Net-(A1-Pad3)*
X99500000Y-36580000D03*
G04 #@! TO.P,A1,19*
G04 #@! TO.N,Net-(A1-Pad19)*
X51240000Y-56900000D03*
G04 #@! TO.P,A1,4*
G04 #@! TO.N,Net-(A1-Pad4)*
X99500000Y-39120000D03*
G04 #@! TO.P,A1,20*
G04 #@! TO.N,D5*
X51240000Y-54360000D03*
G04 #@! TO.P,A1,5*
G04 #@! TO.N,+5V*
X99500000Y-41660000D03*
G04 #@! TO.P,A1,21*
G04 #@! TO.N,Net-(A1-Pad21)*
X51240000Y-51820000D03*
G04 #@! TO.P,A1,6*
G04 #@! TO.N,GND*
X99500000Y-44200000D03*
G04 #@! TO.P,A1,22*
G04 #@! TO.N,Net-(A1-Pad22)*
X51240000Y-49280000D03*
G04 #@! TO.P,A1,7*
G04 #@! TO.N,GND*
X99500000Y-46740000D03*
G04 #@! TO.P,A1,23*
G04 #@! TO.N,Net-(A1-Pad23)*
X51240000Y-45220000D03*
G04 #@! TO.P,A1,8*
G04 #@! TO.N,Net-(A1-Pad8)*
X99500000Y-49280000D03*
G04 #@! TO.P,A1,24*
G04 #@! TO.N,D9*
X51240000Y-42680000D03*
G04 #@! TO.P,A1,9*
G04 #@! TO.N,A0*
X99500000Y-54360000D03*
G04 #@! TO.P,A1,25*
G04 #@! TO.N,Net-(A1-Pad25)*
X51240000Y-40140000D03*
G04 #@! TO.P,A1,10*
G04 #@! TO.N,A1*
X99500000Y-56900000D03*
G04 #@! TO.P,A1,26*
G04 #@! TO.N,Net-(A1-Pad26)*
X51240000Y-37600000D03*
G04 #@! TO.P,A1,11*
G04 #@! TO.N,Net-(A1-Pad11)*
X99500000Y-59440000D03*
G04 #@! TO.P,A1,27*
G04 #@! TO.N,Net-(A1-Pad27)*
X51240000Y-35060000D03*
G04 #@! TO.P,A1,12*
G04 #@! TO.N,Net-(A1-Pad12)*
X99500000Y-61980000D03*
G04 #@! TO.P,A1,28*
G04 #@! TO.N,Net-(A1-Pad28)*
X51240000Y-32520000D03*
G04 #@! TO.P,A1,13*
G04 #@! TO.N,Net-(A1-Pad13)*
X99500000Y-64520000D03*
G04 #@! TO.P,A1,29*
G04 #@! TO.N,GND*
X51240000Y-29980000D03*
G04 #@! TO.P,A1,14*
G04 #@! TO.N,Net-(A1-Pad14)*
X99500000Y-67060000D03*
G04 #@! TO.P,A1,30*
G04 #@! TO.N,Net-(A1-Pad30)*
X51240000Y-27440000D03*
G04 #@! TO.P,A1,15*
G04 #@! TO.N,Net-(A1-Pad15)*
X51240000Y-67060000D03*
G04 #@! TO.P,A1,16*
G04 #@! TO.N,Net-(A1-Pad16)*
X51240000Y-64520000D03*
G04 #@! TD*
D14*
G04 #@! TO.P,J1,1*
G04 #@! TO.N,D9*
X29000000Y-44000000D03*
D15*
G04 #@! TO.P,J1,2*
G04 #@! TO.N,+5V*
X29000000Y-38920000D03*
G04 #@! TD*
G04 #@! TO.P,J2,2*
G04 #@! TO.N,+5V*
X110000000Y-45580000D03*
D14*
G04 #@! TO.P,J2,1*
G04 #@! TO.N,A0*
X110000000Y-40500000D03*
G04 #@! TD*
G04 #@! TO.P,J3,1*
G04 #@! TO.N,A1*
X110000000Y-56080000D03*
D15*
G04 #@! TO.P,J3,2*
G04 #@! TO.N,+5V*
X110000000Y-51000000D03*
G04 #@! TD*
G04 #@! TO.P,J4,2*
G04 #@! TO.N,D5*
X29000000Y-49420000D03*
D14*
G04 #@! TO.P,J4,1*
G04 #@! TO.N,GND*
X29000000Y-54500000D03*
G04 #@! TD*
D16*
G04 #@! TO.P,J5,1*
G04 #@! TO.N,Net-(A1-Pad15)*
X41500000Y-66500000D03*
D17*
G04 #@! TO.P,J5,2*
G04 #@! TO.N,DmxOut*
X41500000Y-63960000D03*
G04 #@! TO.P,J5,3*
G04 #@! TO.N,Net-(A1-Pad16)*
X41500000Y-61420000D03*
G04 #@! TD*
D14*
G04 #@! TO.P,J6,1*
G04 #@! TO.N,GND*
X32500000Y-27500000D03*
D15*
G04 #@! TO.P,J6,2*
G04 #@! TO.N,Net-(J6-Pad2)*
X37580000Y-27500000D03*
G04 #@! TO.P,J6,3*
G04 #@! TO.N,Net-(J6-Pad3)*
X42660000Y-27500000D03*
G04 #@! TD*
D10*
G04 #@! TO.P,,1*
G04 #@! TO.N,N/C*
X61856155Y-25643845D03*
X60000000Y-24875000D03*
X58143845Y-25643845D03*
X57375000Y-27500000D03*
X58143845Y-29356155D03*
X60000000Y-30125000D03*
X61856155Y-29356155D03*
X62625000Y-27500000D03*
D11*
X60000000Y-27500000D03*
G04 #@! TD*
D10*
G04 #@! TO.P,,1*
G04 #@! TO.N,N/C*
X91856155Y-25643845D03*
X90000000Y-24875000D03*
X88143845Y-25643845D03*
X87375000Y-27500000D03*
X88143845Y-29356155D03*
X90000000Y-30125000D03*
X91856155Y-29356155D03*
X92625000Y-27500000D03*
D11*
X90000000Y-27500000D03*
G04 #@! TD*
D10*
G04 #@! TO.P,,1*
G04 #@! TO.N,N/C*
X91856155Y-60643845D03*
X90000000Y-59875000D03*
X88143845Y-60643845D03*
X87375000Y-62500000D03*
X88143845Y-64356155D03*
X90000000Y-65125000D03*
X91856155Y-64356155D03*
X92625000Y-62500000D03*
D11*
X90000000Y-62500000D03*
G04 #@! TD*
D18*
G04 #@! TO.N,+5V*
X38500000Y-46500000D03*
X47500000Y-44500000D03*
G04 #@! TO.N,GND*
X35000000Y-60000000D03*
X44000000Y-57500000D03*
G04 #@! TD*
D19*
G04 #@! TO.N,D5*
X33940000Y-54360000D02*
X29000000Y-49420000D01*
X51240000Y-54360000D02*
X33940000Y-54360000D01*
D20*
G04 #@! TO.N,+5V*
X45500000Y-46500000D02*
X47500000Y-44500000D01*
X38500000Y-46500000D02*
X45500000Y-46500000D01*
D19*
X106080000Y-41660000D02*
X110000000Y-45580000D01*
X99500000Y-41660000D02*
X106080000Y-41660000D01*
X110000000Y-45580000D02*
X110000000Y-51000000D01*
G04 #@! TO.N,GND*
X35000000Y-60000000D02*
X35399999Y-59600001D01*
X35399999Y-59600001D02*
X37500000Y-57500000D01*
X37500000Y-57500000D02*
X44000000Y-57500000D01*
G04 #@! TO.N,D9*
X30320000Y-42680000D02*
X29000000Y-44000000D01*
X51240000Y-42680000D02*
X30320000Y-42680000D01*
G04 #@! TD*
D21*
G04 #@! TO.N,GND*
G36*
X114265001Y-69290000D02*
X25735000Y-69290000D01*
X25735000Y-61420000D01*
X39985908Y-61420000D01*
X40101161Y-61999418D01*
X40429375Y-62490625D01*
X40727761Y-62690000D01*
X40429375Y-62889375D01*
X40101161Y-63380582D01*
X39985908Y-63960000D01*
X40101161Y-64539418D01*
X40429375Y-65030625D01*
X40447619Y-65042816D01*
X40402235Y-65051843D01*
X40192191Y-65192191D01*
X40051843Y-65402235D01*
X40002560Y-65650000D01*
X40002560Y-67350000D01*
X40051843Y-67597765D01*
X40192191Y-67807809D01*
X40402235Y-67948157D01*
X40650000Y-67997440D01*
X42350000Y-67997440D01*
X42597765Y-67948157D01*
X42807809Y-67807809D01*
X42948157Y-67597765D01*
X42997440Y-67350000D01*
X42997440Y-65650000D01*
X42948157Y-65402235D01*
X42807809Y-65192191D01*
X42597765Y-65051843D01*
X42552381Y-65042816D01*
X42570625Y-65030625D01*
X42898839Y-64539418D01*
X43014092Y-63960000D01*
X42898839Y-63380582D01*
X42570625Y-62889375D01*
X42272239Y-62690000D01*
X42570625Y-62490625D01*
X42898839Y-61999418D01*
X43014092Y-61420000D01*
X42898839Y-60840582D01*
X42570625Y-60349375D01*
X42079418Y-60021161D01*
X41646256Y-59935000D01*
X41353744Y-59935000D01*
X40920582Y-60021161D01*
X40429375Y-60349375D01*
X40101161Y-60840582D01*
X39985908Y-61420000D01*
X25735000Y-61420000D01*
X25735000Y-54785750D01*
X26865000Y-54785750D01*
X26865000Y-56126309D01*
X26961673Y-56359698D01*
X27140301Y-56538327D01*
X27373690Y-56635000D01*
X28714250Y-56635000D01*
X28873000Y-56476250D01*
X28873000Y-54627000D01*
X29127000Y-54627000D01*
X29127000Y-56476250D01*
X29285750Y-56635000D01*
X30626310Y-56635000D01*
X30859699Y-56538327D01*
X31038327Y-56359698D01*
X31135000Y-56126309D01*
X31135000Y-54785750D01*
X30976250Y-54627000D01*
X29127000Y-54627000D01*
X28873000Y-54627000D01*
X27023750Y-54627000D01*
X26865000Y-54785750D01*
X25735000Y-54785750D01*
X25735000Y-52873691D01*
X26865000Y-52873691D01*
X26865000Y-54214250D01*
X27023750Y-54373000D01*
X28873000Y-54373000D01*
X28873000Y-52523750D01*
X28714250Y-52365000D01*
X27373690Y-52365000D01*
X27140301Y-52461673D01*
X26961673Y-52640302D01*
X26865000Y-52873691D01*
X25735000Y-52873691D01*
X25735000Y-48995322D01*
X26865000Y-48995322D01*
X26865000Y-49844678D01*
X27190034Y-50629380D01*
X27790620Y-51229966D01*
X28575322Y-51555000D01*
X29424678Y-51555000D01*
X29624059Y-51472414D01*
X30516645Y-52365000D01*
X29285750Y-52365000D01*
X29127000Y-52523750D01*
X29127000Y-54373000D01*
X30976250Y-54373000D01*
X31135000Y-54214250D01*
X31135000Y-52983356D01*
X33155484Y-55003840D01*
X33211831Y-55088169D01*
X33296160Y-55144516D01*
X33296162Y-55144518D01*
X33471105Y-55261411D01*
X33545918Y-55311399D01*
X33840524Y-55370000D01*
X33840529Y-55370000D01*
X33940000Y-55389786D01*
X34039471Y-55370000D01*
X50189001Y-55370000D01*
X50205423Y-55394577D01*
X50557758Y-55630000D01*
X50205423Y-55865423D01*
X49888260Y-56340091D01*
X49776887Y-56900000D01*
X49888260Y-57459909D01*
X50205423Y-57934577D01*
X50557758Y-58170000D01*
X50205423Y-58405423D01*
X49888260Y-58880091D01*
X49776887Y-59440000D01*
X49888260Y-59999909D01*
X50205423Y-60474577D01*
X50557758Y-60710000D01*
X50205423Y-60945423D01*
X49888260Y-61420091D01*
X49776887Y-61980000D01*
X49888260Y-62539909D01*
X50205423Y-63014577D01*
X50557758Y-63250000D01*
X50205423Y-63485423D01*
X49888260Y-63960091D01*
X49776887Y-64520000D01*
X49888260Y-65079909D01*
X50205423Y-65554577D01*
X50557758Y-65790000D01*
X50205423Y-66025423D01*
X49888260Y-66500091D01*
X49776887Y-67060000D01*
X49888260Y-67619909D01*
X50205423Y-68094577D01*
X50680091Y-68411740D01*
X51098667Y-68495000D01*
X51381333Y-68495000D01*
X51799909Y-68411740D01*
X52274577Y-68094577D01*
X52591740Y-67619909D01*
X52703113Y-67060000D01*
X52591740Y-66500091D01*
X52274577Y-66025423D01*
X51922242Y-65790000D01*
X52274577Y-65554577D01*
X52591740Y-65079909D01*
X52703113Y-64520000D01*
X52591740Y-63960091D01*
X52274577Y-63485423D01*
X51922242Y-63250000D01*
X52274577Y-63014577D01*
X52591740Y-62539909D01*
X52703113Y-61980000D01*
X52642942Y-61677497D01*
X55865000Y-61677497D01*
X55865000Y-63322503D01*
X56494517Y-64842289D01*
X57657711Y-66005483D01*
X59177497Y-66635000D01*
X60822503Y-66635000D01*
X62342289Y-66005483D01*
X63505483Y-64842289D01*
X64135000Y-63322503D01*
X64135000Y-61677497D01*
X85865000Y-61677497D01*
X85865000Y-63322503D01*
X86494517Y-64842289D01*
X87657711Y-66005483D01*
X89177497Y-66635000D01*
X90822503Y-66635000D01*
X92342289Y-66005483D01*
X93505483Y-64842289D01*
X94135000Y-63322503D01*
X94135000Y-61677497D01*
X93505483Y-60157711D01*
X92342289Y-58994517D01*
X90822503Y-58365000D01*
X89177497Y-58365000D01*
X87657711Y-58994517D01*
X86494517Y-60157711D01*
X85865000Y-61677497D01*
X64135000Y-61677497D01*
X63505483Y-60157711D01*
X62342289Y-58994517D01*
X60822503Y-58365000D01*
X59177497Y-58365000D01*
X57657711Y-58994517D01*
X56494517Y-60157711D01*
X55865000Y-61677497D01*
X52642942Y-61677497D01*
X52591740Y-61420091D01*
X52274577Y-60945423D01*
X51922242Y-60710000D01*
X52274577Y-60474577D01*
X52591740Y-59999909D01*
X52703113Y-59440000D01*
X52591740Y-58880091D01*
X52274577Y-58405423D01*
X51922242Y-58170000D01*
X52274577Y-57934577D01*
X52591740Y-57459909D01*
X52703113Y-56900000D01*
X52591740Y-56340091D01*
X52274577Y-55865423D01*
X51922242Y-55630000D01*
X52274577Y-55394577D01*
X52591740Y-54919909D01*
X52703113Y-54360000D01*
X98036887Y-54360000D01*
X98148260Y-54919909D01*
X98465423Y-55394577D01*
X98817758Y-55630000D01*
X98465423Y-55865423D01*
X98148260Y-56340091D01*
X98036887Y-56900000D01*
X98148260Y-57459909D01*
X98465423Y-57934577D01*
X98817758Y-58170000D01*
X98465423Y-58405423D01*
X98148260Y-58880091D01*
X98036887Y-59440000D01*
X98148260Y-59999909D01*
X98465423Y-60474577D01*
X98817758Y-60710000D01*
X98465423Y-60945423D01*
X98148260Y-61420091D01*
X98036887Y-61980000D01*
X98148260Y-62539909D01*
X98465423Y-63014577D01*
X98817758Y-63250000D01*
X98465423Y-63485423D01*
X98148260Y-63960091D01*
X98036887Y-64520000D01*
X98148260Y-65079909D01*
X98465423Y-65554577D01*
X98817758Y-65790000D01*
X98465423Y-66025423D01*
X98148260Y-66500091D01*
X98036887Y-67060000D01*
X98148260Y-67619909D01*
X98465423Y-68094577D01*
X98940091Y-68411740D01*
X99358667Y-68495000D01*
X99641333Y-68495000D01*
X100059909Y-68411740D01*
X100534577Y-68094577D01*
X100851740Y-67619909D01*
X100963113Y-67060000D01*
X100851740Y-66500091D01*
X100534577Y-66025423D01*
X100182242Y-65790000D01*
X100534577Y-65554577D01*
X100851740Y-65079909D01*
X100963113Y-64520000D01*
X100851740Y-63960091D01*
X100534577Y-63485423D01*
X100182242Y-63250000D01*
X100534577Y-63014577D01*
X100851740Y-62539909D01*
X100963113Y-61980000D01*
X100851740Y-61420091D01*
X100534577Y-60945423D01*
X100182242Y-60710000D01*
X100534577Y-60474577D01*
X100851740Y-59999909D01*
X100963113Y-59440000D01*
X100851740Y-58880091D01*
X100534577Y-58405423D01*
X100182242Y-58170000D01*
X100534577Y-57934577D01*
X100851740Y-57459909D01*
X100963113Y-56900000D01*
X100851740Y-56340091D01*
X100534577Y-55865423D01*
X100182242Y-55630000D01*
X100534577Y-55394577D01*
X100851740Y-54919909D01*
X100919352Y-54580000D01*
X107852560Y-54580000D01*
X107852560Y-57580000D01*
X107901843Y-57827765D01*
X108042191Y-58037809D01*
X108252235Y-58178157D01*
X108500000Y-58227440D01*
X111500000Y-58227440D01*
X111747765Y-58178157D01*
X111957809Y-58037809D01*
X112098157Y-57827765D01*
X112147440Y-57580000D01*
X112147440Y-54580000D01*
X112098157Y-54332235D01*
X111957809Y-54122191D01*
X111747765Y-53981843D01*
X111500000Y-53932560D01*
X108500000Y-53932560D01*
X108252235Y-53981843D01*
X108042191Y-54122191D01*
X107901843Y-54332235D01*
X107852560Y-54580000D01*
X100919352Y-54580000D01*
X100963113Y-54360000D01*
X100851740Y-53800091D01*
X100534577Y-53325423D01*
X100059909Y-53008260D01*
X99641333Y-52925000D01*
X99358667Y-52925000D01*
X98940091Y-53008260D01*
X98465423Y-53325423D01*
X98148260Y-53800091D01*
X98036887Y-54360000D01*
X52703113Y-54360000D01*
X52591740Y-53800091D01*
X52274577Y-53325423D01*
X51922242Y-53090000D01*
X52274577Y-52854577D01*
X52591740Y-52379909D01*
X52703113Y-51820000D01*
X52591740Y-51260091D01*
X52274577Y-50785423D01*
X51922242Y-50550000D01*
X52274577Y-50314577D01*
X52591740Y-49839909D01*
X52703113Y-49280000D01*
X98036887Y-49280000D01*
X98148260Y-49839909D01*
X98465423Y-50314577D01*
X98940091Y-50631740D01*
X99358667Y-50715000D01*
X99641333Y-50715000D01*
X100059909Y-50631740D01*
X100534577Y-50314577D01*
X100851740Y-49839909D01*
X100963113Y-49280000D01*
X100851740Y-48720091D01*
X100534577Y-48245423D01*
X100150892Y-47989053D01*
X100355134Y-47892389D01*
X100731041Y-47477423D01*
X100891904Y-47089039D01*
X100769915Y-46867000D01*
X99627000Y-46867000D01*
X99627000Y-46887000D01*
X99373000Y-46887000D01*
X99373000Y-46867000D01*
X98230085Y-46867000D01*
X98108096Y-47089039D01*
X98268959Y-47477423D01*
X98644866Y-47892389D01*
X98849108Y-47989053D01*
X98465423Y-48245423D01*
X98148260Y-48720091D01*
X98036887Y-49280000D01*
X52703113Y-49280000D01*
X52591740Y-48720091D01*
X52274577Y-48245423D01*
X51799909Y-47928260D01*
X51381333Y-47845000D01*
X51098667Y-47845000D01*
X50680091Y-47928260D01*
X50205423Y-48245423D01*
X49888260Y-48720091D01*
X49776887Y-49280000D01*
X49888260Y-49839909D01*
X50205423Y-50314577D01*
X50557758Y-50550000D01*
X50205423Y-50785423D01*
X49888260Y-51260091D01*
X49776887Y-51820000D01*
X49888260Y-52379909D01*
X50205423Y-52854577D01*
X50557758Y-53090000D01*
X50205423Y-53325423D01*
X50189001Y-53350000D01*
X34358356Y-53350000D01*
X31052414Y-50044059D01*
X31135000Y-49844678D01*
X31135000Y-48995322D01*
X30809966Y-48210620D01*
X30209380Y-47610034D01*
X29424678Y-47285000D01*
X28575322Y-47285000D01*
X27790620Y-47610034D01*
X27190034Y-48210620D01*
X26865000Y-48995322D01*
X25735000Y-48995322D01*
X25735000Y-42500000D01*
X26852560Y-42500000D01*
X26852560Y-45500000D01*
X26901843Y-45747765D01*
X27042191Y-45957809D01*
X27252235Y-46098157D01*
X27500000Y-46147440D01*
X30500000Y-46147440D01*
X30747765Y-46098157D01*
X30957809Y-45957809D01*
X31098157Y-45747765D01*
X31147440Y-45500000D01*
X31147440Y-43690000D01*
X46846289Y-43690000D01*
X46622569Y-43913720D01*
X46472569Y-44275852D01*
X45133422Y-45615000D01*
X39068007Y-45615000D01*
X38705874Y-45465000D01*
X38294126Y-45465000D01*
X37913720Y-45622569D01*
X37622569Y-45913720D01*
X37465000Y-46294126D01*
X37465000Y-46705874D01*
X37622569Y-47086280D01*
X37913720Y-47377431D01*
X38294126Y-47535000D01*
X38705874Y-47535000D01*
X39068007Y-47385000D01*
X45412839Y-47385000D01*
X45500000Y-47402337D01*
X45587161Y-47385000D01*
X45587165Y-47385000D01*
X45845310Y-47333652D01*
X46138049Y-47138049D01*
X46187425Y-47064153D01*
X47724148Y-45527431D01*
X48086280Y-45377431D01*
X48377431Y-45086280D01*
X48535000Y-44705874D01*
X48535000Y-44294126D01*
X48377431Y-43913720D01*
X48153711Y-43690000D01*
X50189001Y-43690000D01*
X50205423Y-43714577D01*
X50557758Y-43950000D01*
X50205423Y-44185423D01*
X49888260Y-44660091D01*
X49776887Y-45220000D01*
X49888260Y-45779909D01*
X50205423Y-46254577D01*
X50680091Y-46571740D01*
X51098667Y-46655000D01*
X51381333Y-46655000D01*
X51799909Y-46571740D01*
X52274577Y-46254577D01*
X52591740Y-45779909D01*
X52703113Y-45220000D01*
X52591740Y-44660091D01*
X52517538Y-44549039D01*
X98108096Y-44549039D01*
X98268959Y-44937423D01*
X98644866Y-45352389D01*
X98893367Y-45470000D01*
X98644866Y-45587611D01*
X98268959Y-46002577D01*
X98108096Y-46390961D01*
X98230085Y-46613000D01*
X99373000Y-46613000D01*
X99373000Y-44327000D01*
X99627000Y-44327000D01*
X99627000Y-46613000D01*
X100769915Y-46613000D01*
X100891904Y-46390961D01*
X100731041Y-46002577D01*
X100355134Y-45587611D01*
X100106633Y-45470000D01*
X100355134Y-45352389D01*
X100731041Y-44937423D01*
X100891904Y-44549039D01*
X100769915Y-44327000D01*
X99627000Y-44327000D01*
X99373000Y-44327000D01*
X98230085Y-44327000D01*
X98108096Y-44549039D01*
X52517538Y-44549039D01*
X52274577Y-44185423D01*
X51922242Y-43950000D01*
X52274577Y-43714577D01*
X52591740Y-43239909D01*
X52703113Y-42680000D01*
X52591740Y-42120091D01*
X52274577Y-41645423D01*
X51922242Y-41410000D01*
X52274577Y-41174577D01*
X52591740Y-40699909D01*
X52703113Y-40140000D01*
X52591740Y-39580091D01*
X52274577Y-39105423D01*
X51922242Y-38870000D01*
X52274577Y-38634577D01*
X52591740Y-38159909D01*
X52703113Y-37600000D01*
X52591740Y-37040091D01*
X52274577Y-36565423D01*
X51922242Y-36330000D01*
X52274577Y-36094577D01*
X52591740Y-35619909D01*
X52703113Y-35060000D01*
X52591740Y-34500091D01*
X52284318Y-34040000D01*
X98036887Y-34040000D01*
X98148260Y-34599909D01*
X98465423Y-35074577D01*
X98817758Y-35310000D01*
X98465423Y-35545423D01*
X98148260Y-36020091D01*
X98036887Y-36580000D01*
X98148260Y-37139909D01*
X98465423Y-37614577D01*
X98817758Y-37850000D01*
X98465423Y-38085423D01*
X98148260Y-38560091D01*
X98036887Y-39120000D01*
X98148260Y-39679909D01*
X98465423Y-40154577D01*
X98817758Y-40390000D01*
X98465423Y-40625423D01*
X98148260Y-41100091D01*
X98036887Y-41660000D01*
X98148260Y-42219909D01*
X98465423Y-42694577D01*
X98849108Y-42950947D01*
X98644866Y-43047611D01*
X98268959Y-43462577D01*
X98108096Y-43850961D01*
X98230085Y-44073000D01*
X99373000Y-44073000D01*
X99373000Y-44053000D01*
X99627000Y-44053000D01*
X99627000Y-44073000D01*
X100769915Y-44073000D01*
X100891904Y-43850961D01*
X100731041Y-43462577D01*
X100355134Y-43047611D01*
X100150892Y-42950947D01*
X100534577Y-42694577D01*
X100550999Y-42670000D01*
X105661645Y-42670000D01*
X107947586Y-44955941D01*
X107865000Y-45155322D01*
X107865000Y-46004678D01*
X108190034Y-46789380D01*
X108790620Y-47389966D01*
X108990000Y-47472552D01*
X108990001Y-49107448D01*
X108790620Y-49190034D01*
X108190034Y-49790620D01*
X107865000Y-50575322D01*
X107865000Y-51424678D01*
X108190034Y-52209380D01*
X108790620Y-52809966D01*
X109575322Y-53135000D01*
X110424678Y-53135000D01*
X111209380Y-52809966D01*
X111809966Y-52209380D01*
X112135000Y-51424678D01*
X112135000Y-50575322D01*
X111809966Y-49790620D01*
X111209380Y-49190034D01*
X111010000Y-49107448D01*
X111010000Y-47472552D01*
X111209380Y-47389966D01*
X111809966Y-46789380D01*
X112135000Y-46004678D01*
X112135000Y-45155322D01*
X111809966Y-44370620D01*
X111209380Y-43770034D01*
X110424678Y-43445000D01*
X109575322Y-43445000D01*
X109375941Y-43527586D01*
X108494751Y-42646396D01*
X108500000Y-42647440D01*
X111500000Y-42647440D01*
X111747765Y-42598157D01*
X111957809Y-42457809D01*
X112098157Y-42247765D01*
X112147440Y-42000000D01*
X112147440Y-39000000D01*
X112098157Y-38752235D01*
X111957809Y-38542191D01*
X111747765Y-38401843D01*
X111500000Y-38352560D01*
X108500000Y-38352560D01*
X108252235Y-38401843D01*
X108042191Y-38542191D01*
X107901843Y-38752235D01*
X107852560Y-39000000D01*
X107852560Y-42000000D01*
X107853604Y-42005249D01*
X106864518Y-41016163D01*
X106808169Y-40931831D01*
X106474082Y-40708601D01*
X106179476Y-40650000D01*
X106179471Y-40650000D01*
X106080000Y-40630214D01*
X105980529Y-40650000D01*
X100550999Y-40650000D01*
X100534577Y-40625423D01*
X100182242Y-40390000D01*
X100534577Y-40154577D01*
X100851740Y-39679909D01*
X100963113Y-39120000D01*
X100851740Y-38560091D01*
X100534577Y-38085423D01*
X100182242Y-37850000D01*
X100534577Y-37614577D01*
X100851740Y-37139909D01*
X100963113Y-36580000D01*
X100851740Y-36020091D01*
X100534577Y-35545423D01*
X100182242Y-35310000D01*
X100534577Y-35074577D01*
X100851740Y-34599909D01*
X100963113Y-34040000D01*
X100851740Y-33480091D01*
X100534577Y-33005423D01*
X100413894Y-32924785D01*
X100547765Y-32898157D01*
X100757809Y-32757809D01*
X100898157Y-32547765D01*
X100947440Y-32300000D01*
X100947440Y-30700000D01*
X100898157Y-30452235D01*
X100757809Y-30242191D01*
X100547765Y-30101843D01*
X100300000Y-30052560D01*
X98700000Y-30052560D01*
X98452235Y-30101843D01*
X98242191Y-30242191D01*
X98101843Y-30452235D01*
X98052560Y-30700000D01*
X98052560Y-32300000D01*
X98101843Y-32547765D01*
X98242191Y-32757809D01*
X98452235Y-32898157D01*
X98586106Y-32924785D01*
X98465423Y-33005423D01*
X98148260Y-33480091D01*
X98036887Y-34040000D01*
X52284318Y-34040000D01*
X52274577Y-34025423D01*
X51922242Y-33790000D01*
X52274577Y-33554577D01*
X52591740Y-33079909D01*
X52703113Y-32520000D01*
X52591740Y-31960091D01*
X52274577Y-31485423D01*
X51890892Y-31229053D01*
X52095134Y-31132389D01*
X52471041Y-30717423D01*
X52631904Y-30329039D01*
X52509915Y-30107000D01*
X51367000Y-30107000D01*
X51367000Y-30127000D01*
X51113000Y-30127000D01*
X51113000Y-30107000D01*
X49970085Y-30107000D01*
X49848096Y-30329039D01*
X50008959Y-30717423D01*
X50384866Y-31132389D01*
X50589108Y-31229053D01*
X50205423Y-31485423D01*
X49888260Y-31960091D01*
X49776887Y-32520000D01*
X49888260Y-33079909D01*
X50205423Y-33554577D01*
X50557758Y-33790000D01*
X50205423Y-34025423D01*
X49888260Y-34500091D01*
X49776887Y-35060000D01*
X49888260Y-35619909D01*
X50205423Y-36094577D01*
X50557758Y-36330000D01*
X50205423Y-36565423D01*
X49888260Y-37040091D01*
X49776887Y-37600000D01*
X49888260Y-38159909D01*
X50205423Y-38634577D01*
X50557758Y-38870000D01*
X50205423Y-39105423D01*
X49888260Y-39580091D01*
X49776887Y-40140000D01*
X49888260Y-40699909D01*
X50205423Y-41174577D01*
X50557758Y-41410000D01*
X50205423Y-41645423D01*
X50189001Y-41670000D01*
X30419471Y-41670000D01*
X30320000Y-41650214D01*
X30220529Y-41670000D01*
X30220524Y-41670000D01*
X29925918Y-41728601D01*
X29925916Y-41728602D01*
X29925917Y-41728602D01*
X29740400Y-41852560D01*
X27500000Y-41852560D01*
X27252235Y-41901843D01*
X27042191Y-42042191D01*
X26901843Y-42252235D01*
X26852560Y-42500000D01*
X25735000Y-42500000D01*
X25735000Y-38495322D01*
X26865000Y-38495322D01*
X26865000Y-39344678D01*
X27190034Y-40129380D01*
X27790620Y-40729966D01*
X28575322Y-41055000D01*
X29424678Y-41055000D01*
X30209380Y-40729966D01*
X30809966Y-40129380D01*
X31135000Y-39344678D01*
X31135000Y-38495322D01*
X30809966Y-37710620D01*
X30209380Y-37110034D01*
X29424678Y-36785000D01*
X28575322Y-36785000D01*
X27790620Y-37110034D01*
X27190034Y-37710620D01*
X26865000Y-38495322D01*
X25735000Y-38495322D01*
X25735000Y-27785750D01*
X30365000Y-27785750D01*
X30365000Y-29126310D01*
X30461673Y-29359699D01*
X30640302Y-29538327D01*
X30873691Y-29635000D01*
X32214250Y-29635000D01*
X32373000Y-29476250D01*
X32373000Y-27627000D01*
X32627000Y-27627000D01*
X32627000Y-29476250D01*
X32785750Y-29635000D01*
X34126309Y-29635000D01*
X34359698Y-29538327D01*
X34538327Y-29359699D01*
X34635000Y-29126310D01*
X34635000Y-27785750D01*
X34476250Y-27627000D01*
X32627000Y-27627000D01*
X32373000Y-27627000D01*
X30523750Y-27627000D01*
X30365000Y-27785750D01*
X25735000Y-27785750D01*
X25735000Y-25873690D01*
X30365000Y-25873690D01*
X30365000Y-27214250D01*
X30523750Y-27373000D01*
X32373000Y-27373000D01*
X32373000Y-25523750D01*
X32627000Y-25523750D01*
X32627000Y-27373000D01*
X34476250Y-27373000D01*
X34635000Y-27214250D01*
X34635000Y-27075322D01*
X35445000Y-27075322D01*
X35445000Y-27924678D01*
X35770034Y-28709380D01*
X36370620Y-29309966D01*
X37155322Y-29635000D01*
X38004678Y-29635000D01*
X38789380Y-29309966D01*
X39389966Y-28709380D01*
X39715000Y-27924678D01*
X39715000Y-27075322D01*
X40525000Y-27075322D01*
X40525000Y-27924678D01*
X40850034Y-28709380D01*
X41450620Y-29309966D01*
X42235322Y-29635000D01*
X43084678Y-29635000D01*
X43869380Y-29309966D01*
X44469966Y-28709380D01*
X44795000Y-27924678D01*
X44795000Y-27075322D01*
X44469966Y-26290620D01*
X43869380Y-25690034D01*
X43084678Y-25365000D01*
X42235322Y-25365000D01*
X41450620Y-25690034D01*
X40850034Y-26290620D01*
X40525000Y-27075322D01*
X39715000Y-27075322D01*
X39389966Y-26290620D01*
X38789380Y-25690034D01*
X38004678Y-25365000D01*
X37155322Y-25365000D01*
X36370620Y-25690034D01*
X35770034Y-26290620D01*
X35445000Y-27075322D01*
X34635000Y-27075322D01*
X34635000Y-25873690D01*
X34538327Y-25640301D01*
X34359698Y-25461673D01*
X34126309Y-25365000D01*
X32785750Y-25365000D01*
X32627000Y-25523750D01*
X32373000Y-25523750D01*
X32214250Y-25365000D01*
X30873691Y-25365000D01*
X30640302Y-25461673D01*
X30461673Y-25640301D01*
X30365000Y-25873690D01*
X25735000Y-25873690D01*
X25735000Y-22360000D01*
X49776887Y-22360000D01*
X49888260Y-22919909D01*
X50205423Y-23394577D01*
X50557758Y-23630000D01*
X50205423Y-23865423D01*
X49888260Y-24340091D01*
X49776887Y-24900000D01*
X49888260Y-25459909D01*
X50205423Y-25934577D01*
X50557758Y-26170000D01*
X50205423Y-26405423D01*
X49888260Y-26880091D01*
X49776887Y-27440000D01*
X49888260Y-27999909D01*
X50205423Y-28474577D01*
X50589108Y-28730947D01*
X50384866Y-28827611D01*
X50008959Y-29242577D01*
X49848096Y-29630961D01*
X49970085Y-29853000D01*
X51113000Y-29853000D01*
X51113000Y-29833000D01*
X51367000Y-29833000D01*
X51367000Y-29853000D01*
X52509915Y-29853000D01*
X52631904Y-29630961D01*
X52471041Y-29242577D01*
X52095134Y-28827611D01*
X51890892Y-28730947D01*
X52274577Y-28474577D01*
X52591740Y-27999909D01*
X52703113Y-27440000D01*
X52591740Y-26880091D01*
X52456372Y-26677497D01*
X55865000Y-26677497D01*
X55865000Y-28322503D01*
X56494517Y-29842289D01*
X57657711Y-31005483D01*
X59177497Y-31635000D01*
X60822503Y-31635000D01*
X62342289Y-31005483D01*
X63505483Y-29842289D01*
X64135000Y-28322503D01*
X64135000Y-26677497D01*
X85865000Y-26677497D01*
X85865000Y-28322503D01*
X86494517Y-29842289D01*
X87657711Y-31005483D01*
X89177497Y-31635000D01*
X90822503Y-31635000D01*
X92342289Y-31005483D01*
X93505483Y-29842289D01*
X94135000Y-28322503D01*
X94135000Y-26677497D01*
X93505483Y-25157711D01*
X92342289Y-23994517D01*
X90822503Y-23365000D01*
X89177497Y-23365000D01*
X87657711Y-23994517D01*
X86494517Y-25157711D01*
X85865000Y-26677497D01*
X64135000Y-26677497D01*
X63505483Y-25157711D01*
X62342289Y-23994517D01*
X60822503Y-23365000D01*
X59177497Y-23365000D01*
X57657711Y-23994517D01*
X56494517Y-25157711D01*
X55865000Y-26677497D01*
X52456372Y-26677497D01*
X52274577Y-26405423D01*
X51922242Y-26170000D01*
X52274577Y-25934577D01*
X52591740Y-25459909D01*
X52703113Y-24900000D01*
X52591740Y-24340091D01*
X52274577Y-23865423D01*
X51922242Y-23630000D01*
X52274577Y-23394577D01*
X52591740Y-22919909D01*
X52703113Y-22360000D01*
X52591740Y-21800091D01*
X52274577Y-21325423D01*
X51799909Y-21008260D01*
X51381333Y-20925000D01*
X51098667Y-20925000D01*
X50680091Y-21008260D01*
X50205423Y-21325423D01*
X49888260Y-21800091D01*
X49776887Y-22360000D01*
X25735000Y-22360000D01*
X25735000Y-20710000D01*
X114265000Y-20710000D01*
X114265001Y-69290000D01*
X114265001Y-69290000D01*
G37*
X114265001Y-69290000D02*
X25735000Y-69290000D01*
X25735000Y-61420000D01*
X39985908Y-61420000D01*
X40101161Y-61999418D01*
X40429375Y-62490625D01*
X40727761Y-62690000D01*
X40429375Y-62889375D01*
X40101161Y-63380582D01*
X39985908Y-63960000D01*
X40101161Y-64539418D01*
X40429375Y-65030625D01*
X40447619Y-65042816D01*
X40402235Y-65051843D01*
X40192191Y-65192191D01*
X40051843Y-65402235D01*
X40002560Y-65650000D01*
X40002560Y-67350000D01*
X40051843Y-67597765D01*
X40192191Y-67807809D01*
X40402235Y-67948157D01*
X40650000Y-67997440D01*
X42350000Y-67997440D01*
X42597765Y-67948157D01*
X42807809Y-67807809D01*
X42948157Y-67597765D01*
X42997440Y-67350000D01*
X42997440Y-65650000D01*
X42948157Y-65402235D01*
X42807809Y-65192191D01*
X42597765Y-65051843D01*
X42552381Y-65042816D01*
X42570625Y-65030625D01*
X42898839Y-64539418D01*
X43014092Y-63960000D01*
X42898839Y-63380582D01*
X42570625Y-62889375D01*
X42272239Y-62690000D01*
X42570625Y-62490625D01*
X42898839Y-61999418D01*
X43014092Y-61420000D01*
X42898839Y-60840582D01*
X42570625Y-60349375D01*
X42079418Y-60021161D01*
X41646256Y-59935000D01*
X41353744Y-59935000D01*
X40920582Y-60021161D01*
X40429375Y-60349375D01*
X40101161Y-60840582D01*
X39985908Y-61420000D01*
X25735000Y-61420000D01*
X25735000Y-54785750D01*
X26865000Y-54785750D01*
X26865000Y-56126309D01*
X26961673Y-56359698D01*
X27140301Y-56538327D01*
X27373690Y-56635000D01*
X28714250Y-56635000D01*
X28873000Y-56476250D01*
X28873000Y-54627000D01*
X29127000Y-54627000D01*
X29127000Y-56476250D01*
X29285750Y-56635000D01*
X30626310Y-56635000D01*
X30859699Y-56538327D01*
X31038327Y-56359698D01*
X31135000Y-56126309D01*
X31135000Y-54785750D01*
X30976250Y-54627000D01*
X29127000Y-54627000D01*
X28873000Y-54627000D01*
X27023750Y-54627000D01*
X26865000Y-54785750D01*
X25735000Y-54785750D01*
X25735000Y-52873691D01*
X26865000Y-52873691D01*
X26865000Y-54214250D01*
X27023750Y-54373000D01*
X28873000Y-54373000D01*
X28873000Y-52523750D01*
X28714250Y-52365000D01*
X27373690Y-52365000D01*
X27140301Y-52461673D01*
X26961673Y-52640302D01*
X26865000Y-52873691D01*
X25735000Y-52873691D01*
X25735000Y-48995322D01*
X26865000Y-48995322D01*
X26865000Y-49844678D01*
X27190034Y-50629380D01*
X27790620Y-51229966D01*
X28575322Y-51555000D01*
X29424678Y-51555000D01*
X29624059Y-51472414D01*
X30516645Y-52365000D01*
X29285750Y-52365000D01*
X29127000Y-52523750D01*
X29127000Y-54373000D01*
X30976250Y-54373000D01*
X31135000Y-54214250D01*
X31135000Y-52983356D01*
X33155484Y-55003840D01*
X33211831Y-55088169D01*
X33296160Y-55144516D01*
X33296162Y-55144518D01*
X33471105Y-55261411D01*
X33545918Y-55311399D01*
X33840524Y-55370000D01*
X33840529Y-55370000D01*
X33940000Y-55389786D01*
X34039471Y-55370000D01*
X50189001Y-55370000D01*
X50205423Y-55394577D01*
X50557758Y-55630000D01*
X50205423Y-55865423D01*
X49888260Y-56340091D01*
X49776887Y-56900000D01*
X49888260Y-57459909D01*
X50205423Y-57934577D01*
X50557758Y-58170000D01*
X50205423Y-58405423D01*
X49888260Y-58880091D01*
X49776887Y-59440000D01*
X49888260Y-59999909D01*
X50205423Y-60474577D01*
X50557758Y-60710000D01*
X50205423Y-60945423D01*
X49888260Y-61420091D01*
X49776887Y-61980000D01*
X49888260Y-62539909D01*
X50205423Y-63014577D01*
X50557758Y-63250000D01*
X50205423Y-63485423D01*
X49888260Y-63960091D01*
X49776887Y-64520000D01*
X49888260Y-65079909D01*
X50205423Y-65554577D01*
X50557758Y-65790000D01*
X50205423Y-66025423D01*
X49888260Y-66500091D01*
X49776887Y-67060000D01*
X49888260Y-67619909D01*
X50205423Y-68094577D01*
X50680091Y-68411740D01*
X51098667Y-68495000D01*
X51381333Y-68495000D01*
X51799909Y-68411740D01*
X52274577Y-68094577D01*
X52591740Y-67619909D01*
X52703113Y-67060000D01*
X52591740Y-66500091D01*
X52274577Y-66025423D01*
X51922242Y-65790000D01*
X52274577Y-65554577D01*
X52591740Y-65079909D01*
X52703113Y-64520000D01*
X52591740Y-63960091D01*
X52274577Y-63485423D01*
X51922242Y-63250000D01*
X52274577Y-63014577D01*
X52591740Y-62539909D01*
X52703113Y-61980000D01*
X52642942Y-61677497D01*
X55865000Y-61677497D01*
X55865000Y-63322503D01*
X56494517Y-64842289D01*
X57657711Y-66005483D01*
X59177497Y-66635000D01*
X60822503Y-66635000D01*
X62342289Y-66005483D01*
X63505483Y-64842289D01*
X64135000Y-63322503D01*
X64135000Y-61677497D01*
X85865000Y-61677497D01*
X85865000Y-63322503D01*
X86494517Y-64842289D01*
X87657711Y-66005483D01*
X89177497Y-66635000D01*
X90822503Y-66635000D01*
X92342289Y-66005483D01*
X93505483Y-64842289D01*
X94135000Y-63322503D01*
X94135000Y-61677497D01*
X93505483Y-60157711D01*
X92342289Y-58994517D01*
X90822503Y-58365000D01*
X89177497Y-58365000D01*
X87657711Y-58994517D01*
X86494517Y-60157711D01*
X85865000Y-61677497D01*
X64135000Y-61677497D01*
X63505483Y-60157711D01*
X62342289Y-58994517D01*
X60822503Y-58365000D01*
X59177497Y-58365000D01*
X57657711Y-58994517D01*
X56494517Y-60157711D01*
X55865000Y-61677497D01*
X52642942Y-61677497D01*
X52591740Y-61420091D01*
X52274577Y-60945423D01*
X51922242Y-60710000D01*
X52274577Y-60474577D01*
X52591740Y-59999909D01*
X52703113Y-59440000D01*
X52591740Y-58880091D01*
X52274577Y-58405423D01*
X51922242Y-58170000D01*
X52274577Y-57934577D01*
X52591740Y-57459909D01*
X52703113Y-56900000D01*
X52591740Y-56340091D01*
X52274577Y-55865423D01*
X51922242Y-55630000D01*
X52274577Y-55394577D01*
X52591740Y-54919909D01*
X52703113Y-54360000D01*
X98036887Y-54360000D01*
X98148260Y-54919909D01*
X98465423Y-55394577D01*
X98817758Y-55630000D01*
X98465423Y-55865423D01*
X98148260Y-56340091D01*
X98036887Y-56900000D01*
X98148260Y-57459909D01*
X98465423Y-57934577D01*
X98817758Y-58170000D01*
X98465423Y-58405423D01*
X98148260Y-58880091D01*
X98036887Y-59440000D01*
X98148260Y-59999909D01*
X98465423Y-60474577D01*
X98817758Y-60710000D01*
X98465423Y-60945423D01*
X98148260Y-61420091D01*
X98036887Y-61980000D01*
X98148260Y-62539909D01*
X98465423Y-63014577D01*
X98817758Y-63250000D01*
X98465423Y-63485423D01*
X98148260Y-63960091D01*
X98036887Y-64520000D01*
X98148260Y-65079909D01*
X98465423Y-65554577D01*
X98817758Y-65790000D01*
X98465423Y-66025423D01*
X98148260Y-66500091D01*
X98036887Y-67060000D01*
X98148260Y-67619909D01*
X98465423Y-68094577D01*
X98940091Y-68411740D01*
X99358667Y-68495000D01*
X99641333Y-68495000D01*
X100059909Y-68411740D01*
X100534577Y-68094577D01*
X100851740Y-67619909D01*
X100963113Y-67060000D01*
X100851740Y-66500091D01*
X100534577Y-66025423D01*
X100182242Y-65790000D01*
X100534577Y-65554577D01*
X100851740Y-65079909D01*
X100963113Y-64520000D01*
X100851740Y-63960091D01*
X100534577Y-63485423D01*
X100182242Y-63250000D01*
X100534577Y-63014577D01*
X100851740Y-62539909D01*
X100963113Y-61980000D01*
X100851740Y-61420091D01*
X100534577Y-60945423D01*
X100182242Y-60710000D01*
X100534577Y-60474577D01*
X100851740Y-59999909D01*
X100963113Y-59440000D01*
X100851740Y-58880091D01*
X100534577Y-58405423D01*
X100182242Y-58170000D01*
X100534577Y-57934577D01*
X100851740Y-57459909D01*
X100963113Y-56900000D01*
X100851740Y-56340091D01*
X100534577Y-55865423D01*
X100182242Y-55630000D01*
X100534577Y-55394577D01*
X100851740Y-54919909D01*
X100919352Y-54580000D01*
X107852560Y-54580000D01*
X107852560Y-57580000D01*
X107901843Y-57827765D01*
X108042191Y-58037809D01*
X108252235Y-58178157D01*
X108500000Y-58227440D01*
X111500000Y-58227440D01*
X111747765Y-58178157D01*
X111957809Y-58037809D01*
X112098157Y-57827765D01*
X112147440Y-57580000D01*
X112147440Y-54580000D01*
X112098157Y-54332235D01*
X111957809Y-54122191D01*
X111747765Y-53981843D01*
X111500000Y-53932560D01*
X108500000Y-53932560D01*
X108252235Y-53981843D01*
X108042191Y-54122191D01*
X107901843Y-54332235D01*
X107852560Y-54580000D01*
X100919352Y-54580000D01*
X100963113Y-54360000D01*
X100851740Y-53800091D01*
X100534577Y-53325423D01*
X100059909Y-53008260D01*
X99641333Y-52925000D01*
X99358667Y-52925000D01*
X98940091Y-53008260D01*
X98465423Y-53325423D01*
X98148260Y-53800091D01*
X98036887Y-54360000D01*
X52703113Y-54360000D01*
X52591740Y-53800091D01*
X52274577Y-53325423D01*
X51922242Y-53090000D01*
X52274577Y-52854577D01*
X52591740Y-52379909D01*
X52703113Y-51820000D01*
X52591740Y-51260091D01*
X52274577Y-50785423D01*
X51922242Y-50550000D01*
X52274577Y-50314577D01*
X52591740Y-49839909D01*
X52703113Y-49280000D01*
X98036887Y-49280000D01*
X98148260Y-49839909D01*
X98465423Y-50314577D01*
X98940091Y-50631740D01*
X99358667Y-50715000D01*
X99641333Y-50715000D01*
X100059909Y-50631740D01*
X100534577Y-50314577D01*
X100851740Y-49839909D01*
X100963113Y-49280000D01*
X100851740Y-48720091D01*
X100534577Y-48245423D01*
X100150892Y-47989053D01*
X100355134Y-47892389D01*
X100731041Y-47477423D01*
X100891904Y-47089039D01*
X100769915Y-46867000D01*
X99627000Y-46867000D01*
X99627000Y-46887000D01*
X99373000Y-46887000D01*
X99373000Y-46867000D01*
X98230085Y-46867000D01*
X98108096Y-47089039D01*
X98268959Y-47477423D01*
X98644866Y-47892389D01*
X98849108Y-47989053D01*
X98465423Y-48245423D01*
X98148260Y-48720091D01*
X98036887Y-49280000D01*
X52703113Y-49280000D01*
X52591740Y-48720091D01*
X52274577Y-48245423D01*
X51799909Y-47928260D01*
X51381333Y-47845000D01*
X51098667Y-47845000D01*
X50680091Y-47928260D01*
X50205423Y-48245423D01*
X49888260Y-48720091D01*
X49776887Y-49280000D01*
X49888260Y-49839909D01*
X50205423Y-50314577D01*
X50557758Y-50550000D01*
X50205423Y-50785423D01*
X49888260Y-51260091D01*
X49776887Y-51820000D01*
X49888260Y-52379909D01*
X50205423Y-52854577D01*
X50557758Y-53090000D01*
X50205423Y-53325423D01*
X50189001Y-53350000D01*
X34358356Y-53350000D01*
X31052414Y-50044059D01*
X31135000Y-49844678D01*
X31135000Y-48995322D01*
X30809966Y-48210620D01*
X30209380Y-47610034D01*
X29424678Y-47285000D01*
X28575322Y-47285000D01*
X27790620Y-47610034D01*
X27190034Y-48210620D01*
X26865000Y-48995322D01*
X25735000Y-48995322D01*
X25735000Y-42500000D01*
X26852560Y-42500000D01*
X26852560Y-45500000D01*
X26901843Y-45747765D01*
X27042191Y-45957809D01*
X27252235Y-46098157D01*
X27500000Y-46147440D01*
X30500000Y-46147440D01*
X30747765Y-46098157D01*
X30957809Y-45957809D01*
X31098157Y-45747765D01*
X31147440Y-45500000D01*
X31147440Y-43690000D01*
X46846289Y-43690000D01*
X46622569Y-43913720D01*
X46472569Y-44275852D01*
X45133422Y-45615000D01*
X39068007Y-45615000D01*
X38705874Y-45465000D01*
X38294126Y-45465000D01*
X37913720Y-45622569D01*
X37622569Y-45913720D01*
X37465000Y-46294126D01*
X37465000Y-46705874D01*
X37622569Y-47086280D01*
X37913720Y-47377431D01*
X38294126Y-47535000D01*
X38705874Y-47535000D01*
X39068007Y-47385000D01*
X45412839Y-47385000D01*
X45500000Y-47402337D01*
X45587161Y-47385000D01*
X45587165Y-47385000D01*
X45845310Y-47333652D01*
X46138049Y-47138049D01*
X46187425Y-47064153D01*
X47724148Y-45527431D01*
X48086280Y-45377431D01*
X48377431Y-45086280D01*
X48535000Y-44705874D01*
X48535000Y-44294126D01*
X48377431Y-43913720D01*
X48153711Y-43690000D01*
X50189001Y-43690000D01*
X50205423Y-43714577D01*
X50557758Y-43950000D01*
X50205423Y-44185423D01*
X49888260Y-44660091D01*
X49776887Y-45220000D01*
X49888260Y-45779909D01*
X50205423Y-46254577D01*
X50680091Y-46571740D01*
X51098667Y-46655000D01*
X51381333Y-46655000D01*
X51799909Y-46571740D01*
X52274577Y-46254577D01*
X52591740Y-45779909D01*
X52703113Y-45220000D01*
X52591740Y-44660091D01*
X52517538Y-44549039D01*
X98108096Y-44549039D01*
X98268959Y-44937423D01*
X98644866Y-45352389D01*
X98893367Y-45470000D01*
X98644866Y-45587611D01*
X98268959Y-46002577D01*
X98108096Y-46390961D01*
X98230085Y-46613000D01*
X99373000Y-46613000D01*
X99373000Y-44327000D01*
X99627000Y-44327000D01*
X99627000Y-46613000D01*
X100769915Y-46613000D01*
X100891904Y-46390961D01*
X100731041Y-46002577D01*
X100355134Y-45587611D01*
X100106633Y-45470000D01*
X100355134Y-45352389D01*
X100731041Y-44937423D01*
X100891904Y-44549039D01*
X100769915Y-44327000D01*
X99627000Y-44327000D01*
X99373000Y-44327000D01*
X98230085Y-44327000D01*
X98108096Y-44549039D01*
X52517538Y-44549039D01*
X52274577Y-44185423D01*
X51922242Y-43950000D01*
X52274577Y-43714577D01*
X52591740Y-43239909D01*
X52703113Y-42680000D01*
X52591740Y-42120091D01*
X52274577Y-41645423D01*
X51922242Y-41410000D01*
X52274577Y-41174577D01*
X52591740Y-40699909D01*
X52703113Y-40140000D01*
X52591740Y-39580091D01*
X52274577Y-39105423D01*
X51922242Y-38870000D01*
X52274577Y-38634577D01*
X52591740Y-38159909D01*
X52703113Y-37600000D01*
X52591740Y-37040091D01*
X52274577Y-36565423D01*
X51922242Y-36330000D01*
X52274577Y-36094577D01*
X52591740Y-35619909D01*
X52703113Y-35060000D01*
X52591740Y-34500091D01*
X52284318Y-34040000D01*
X98036887Y-34040000D01*
X98148260Y-34599909D01*
X98465423Y-35074577D01*
X98817758Y-35310000D01*
X98465423Y-35545423D01*
X98148260Y-36020091D01*
X98036887Y-36580000D01*
X98148260Y-37139909D01*
X98465423Y-37614577D01*
X98817758Y-37850000D01*
X98465423Y-38085423D01*
X98148260Y-38560091D01*
X98036887Y-39120000D01*
X98148260Y-39679909D01*
X98465423Y-40154577D01*
X98817758Y-40390000D01*
X98465423Y-40625423D01*
X98148260Y-41100091D01*
X98036887Y-41660000D01*
X98148260Y-42219909D01*
X98465423Y-42694577D01*
X98849108Y-42950947D01*
X98644866Y-43047611D01*
X98268959Y-43462577D01*
X98108096Y-43850961D01*
X98230085Y-44073000D01*
X99373000Y-44073000D01*
X99373000Y-44053000D01*
X99627000Y-44053000D01*
X99627000Y-44073000D01*
X100769915Y-44073000D01*
X100891904Y-43850961D01*
X100731041Y-43462577D01*
X100355134Y-43047611D01*
X100150892Y-42950947D01*
X100534577Y-42694577D01*
X100550999Y-42670000D01*
X105661645Y-42670000D01*
X107947586Y-44955941D01*
X107865000Y-45155322D01*
X107865000Y-46004678D01*
X108190034Y-46789380D01*
X108790620Y-47389966D01*
X108990000Y-47472552D01*
X108990001Y-49107448D01*
X108790620Y-49190034D01*
X108190034Y-49790620D01*
X107865000Y-50575322D01*
X107865000Y-51424678D01*
X108190034Y-52209380D01*
X108790620Y-52809966D01*
X109575322Y-53135000D01*
X110424678Y-53135000D01*
X111209380Y-52809966D01*
X111809966Y-52209380D01*
X112135000Y-51424678D01*
X112135000Y-50575322D01*
X111809966Y-49790620D01*
X111209380Y-49190034D01*
X111010000Y-49107448D01*
X111010000Y-47472552D01*
X111209380Y-47389966D01*
X111809966Y-46789380D01*
X112135000Y-46004678D01*
X112135000Y-45155322D01*
X111809966Y-44370620D01*
X111209380Y-43770034D01*
X110424678Y-43445000D01*
X109575322Y-43445000D01*
X109375941Y-43527586D01*
X108494751Y-42646396D01*
X108500000Y-42647440D01*
X111500000Y-42647440D01*
X111747765Y-42598157D01*
X111957809Y-42457809D01*
X112098157Y-42247765D01*
X112147440Y-42000000D01*
X112147440Y-39000000D01*
X112098157Y-38752235D01*
X111957809Y-38542191D01*
X111747765Y-38401843D01*
X111500000Y-38352560D01*
X108500000Y-38352560D01*
X108252235Y-38401843D01*
X108042191Y-38542191D01*
X107901843Y-38752235D01*
X107852560Y-39000000D01*
X107852560Y-42000000D01*
X107853604Y-42005249D01*
X106864518Y-41016163D01*
X106808169Y-40931831D01*
X106474082Y-40708601D01*
X106179476Y-40650000D01*
X106179471Y-40650000D01*
X106080000Y-40630214D01*
X105980529Y-40650000D01*
X100550999Y-40650000D01*
X100534577Y-40625423D01*
X100182242Y-40390000D01*
X100534577Y-40154577D01*
X100851740Y-39679909D01*
X100963113Y-39120000D01*
X100851740Y-38560091D01*
X100534577Y-38085423D01*
X100182242Y-37850000D01*
X100534577Y-37614577D01*
X100851740Y-37139909D01*
X100963113Y-36580000D01*
X100851740Y-36020091D01*
X100534577Y-35545423D01*
X100182242Y-35310000D01*
X100534577Y-35074577D01*
X100851740Y-34599909D01*
X100963113Y-34040000D01*
X100851740Y-33480091D01*
X100534577Y-33005423D01*
X100413894Y-32924785D01*
X100547765Y-32898157D01*
X100757809Y-32757809D01*
X100898157Y-32547765D01*
X100947440Y-32300000D01*
X100947440Y-30700000D01*
X100898157Y-30452235D01*
X100757809Y-30242191D01*
X100547765Y-30101843D01*
X100300000Y-30052560D01*
X98700000Y-30052560D01*
X98452235Y-30101843D01*
X98242191Y-30242191D01*
X98101843Y-30452235D01*
X98052560Y-30700000D01*
X98052560Y-32300000D01*
X98101843Y-32547765D01*
X98242191Y-32757809D01*
X98452235Y-32898157D01*
X98586106Y-32924785D01*
X98465423Y-33005423D01*
X98148260Y-33480091D01*
X98036887Y-34040000D01*
X52284318Y-34040000D01*
X52274577Y-34025423D01*
X51922242Y-33790000D01*
X52274577Y-33554577D01*
X52591740Y-33079909D01*
X52703113Y-32520000D01*
X52591740Y-31960091D01*
X52274577Y-31485423D01*
X51890892Y-31229053D01*
X52095134Y-31132389D01*
X52471041Y-30717423D01*
X52631904Y-30329039D01*
X52509915Y-30107000D01*
X51367000Y-30107000D01*
X51367000Y-30127000D01*
X51113000Y-30127000D01*
X51113000Y-30107000D01*
X49970085Y-30107000D01*
X49848096Y-30329039D01*
X50008959Y-30717423D01*
X50384866Y-31132389D01*
X50589108Y-31229053D01*
X50205423Y-31485423D01*
X49888260Y-31960091D01*
X49776887Y-32520000D01*
X49888260Y-33079909D01*
X50205423Y-33554577D01*
X50557758Y-33790000D01*
X50205423Y-34025423D01*
X49888260Y-34500091D01*
X49776887Y-35060000D01*
X49888260Y-35619909D01*
X50205423Y-36094577D01*
X50557758Y-36330000D01*
X50205423Y-36565423D01*
X49888260Y-37040091D01*
X49776887Y-37600000D01*
X49888260Y-38159909D01*
X50205423Y-38634577D01*
X50557758Y-38870000D01*
X50205423Y-39105423D01*
X49888260Y-39580091D01*
X49776887Y-40140000D01*
X49888260Y-40699909D01*
X50205423Y-41174577D01*
X50557758Y-41410000D01*
X50205423Y-41645423D01*
X50189001Y-41670000D01*
X30419471Y-41670000D01*
X30320000Y-41650214D01*
X30220529Y-41670000D01*
X30220524Y-41670000D01*
X29925918Y-41728601D01*
X29925916Y-41728602D01*
X29925917Y-41728602D01*
X29740400Y-41852560D01*
X27500000Y-41852560D01*
X27252235Y-41901843D01*
X27042191Y-42042191D01*
X26901843Y-42252235D01*
X26852560Y-42500000D01*
X25735000Y-42500000D01*
X25735000Y-38495322D01*
X26865000Y-38495322D01*
X26865000Y-39344678D01*
X27190034Y-40129380D01*
X27790620Y-40729966D01*
X28575322Y-41055000D01*
X29424678Y-41055000D01*
X30209380Y-40729966D01*
X30809966Y-40129380D01*
X31135000Y-39344678D01*
X31135000Y-38495322D01*
X30809966Y-37710620D01*
X30209380Y-37110034D01*
X29424678Y-36785000D01*
X28575322Y-36785000D01*
X27790620Y-37110034D01*
X27190034Y-37710620D01*
X26865000Y-38495322D01*
X25735000Y-38495322D01*
X25735000Y-27785750D01*
X30365000Y-27785750D01*
X30365000Y-29126310D01*
X30461673Y-29359699D01*
X30640302Y-29538327D01*
X30873691Y-29635000D01*
X32214250Y-29635000D01*
X32373000Y-29476250D01*
X32373000Y-27627000D01*
X32627000Y-27627000D01*
X32627000Y-29476250D01*
X32785750Y-29635000D01*
X34126309Y-29635000D01*
X34359698Y-29538327D01*
X34538327Y-29359699D01*
X34635000Y-29126310D01*
X34635000Y-27785750D01*
X34476250Y-27627000D01*
X32627000Y-27627000D01*
X32373000Y-27627000D01*
X30523750Y-27627000D01*
X30365000Y-27785750D01*
X25735000Y-27785750D01*
X25735000Y-25873690D01*
X30365000Y-25873690D01*
X30365000Y-27214250D01*
X30523750Y-27373000D01*
X32373000Y-27373000D01*
X32373000Y-25523750D01*
X32627000Y-25523750D01*
X32627000Y-27373000D01*
X34476250Y-27373000D01*
X34635000Y-27214250D01*
X34635000Y-27075322D01*
X35445000Y-27075322D01*
X35445000Y-27924678D01*
X35770034Y-28709380D01*
X36370620Y-29309966D01*
X37155322Y-29635000D01*
X38004678Y-29635000D01*
X38789380Y-29309966D01*
X39389966Y-28709380D01*
X39715000Y-27924678D01*
X39715000Y-27075322D01*
X40525000Y-27075322D01*
X40525000Y-27924678D01*
X40850034Y-28709380D01*
X41450620Y-29309966D01*
X42235322Y-29635000D01*
X43084678Y-29635000D01*
X43869380Y-29309966D01*
X44469966Y-28709380D01*
X44795000Y-27924678D01*
X44795000Y-27075322D01*
X44469966Y-26290620D01*
X43869380Y-25690034D01*
X43084678Y-25365000D01*
X42235322Y-25365000D01*
X41450620Y-25690034D01*
X40850034Y-26290620D01*
X40525000Y-27075322D01*
X39715000Y-27075322D01*
X39389966Y-26290620D01*
X38789380Y-25690034D01*
X38004678Y-25365000D01*
X37155322Y-25365000D01*
X36370620Y-25690034D01*
X35770034Y-26290620D01*
X35445000Y-27075322D01*
X34635000Y-27075322D01*
X34635000Y-25873690D01*
X34538327Y-25640301D01*
X34359698Y-25461673D01*
X34126309Y-25365000D01*
X32785750Y-25365000D01*
X32627000Y-25523750D01*
X32373000Y-25523750D01*
X32214250Y-25365000D01*
X30873691Y-25365000D01*
X30640302Y-25461673D01*
X30461673Y-25640301D01*
X30365000Y-25873690D01*
X25735000Y-25873690D01*
X25735000Y-22360000D01*
X49776887Y-22360000D01*
X49888260Y-22919909D01*
X50205423Y-23394577D01*
X50557758Y-23630000D01*
X50205423Y-23865423D01*
X49888260Y-24340091D01*
X49776887Y-24900000D01*
X49888260Y-25459909D01*
X50205423Y-25934577D01*
X50557758Y-26170000D01*
X50205423Y-26405423D01*
X49888260Y-26880091D01*
X49776887Y-27440000D01*
X49888260Y-27999909D01*
X50205423Y-28474577D01*
X50589108Y-28730947D01*
X50384866Y-28827611D01*
X50008959Y-29242577D01*
X49848096Y-29630961D01*
X49970085Y-29853000D01*
X51113000Y-29853000D01*
X51113000Y-29833000D01*
X51367000Y-29833000D01*
X51367000Y-29853000D01*
X52509915Y-29853000D01*
X52631904Y-29630961D01*
X52471041Y-29242577D01*
X52095134Y-28827611D01*
X51890892Y-28730947D01*
X52274577Y-28474577D01*
X52591740Y-27999909D01*
X52703113Y-27440000D01*
X52591740Y-26880091D01*
X52456372Y-26677497D01*
X55865000Y-26677497D01*
X55865000Y-28322503D01*
X56494517Y-29842289D01*
X57657711Y-31005483D01*
X59177497Y-31635000D01*
X60822503Y-31635000D01*
X62342289Y-31005483D01*
X63505483Y-29842289D01*
X64135000Y-28322503D01*
X64135000Y-26677497D01*
X85865000Y-26677497D01*
X85865000Y-28322503D01*
X86494517Y-29842289D01*
X87657711Y-31005483D01*
X89177497Y-31635000D01*
X90822503Y-31635000D01*
X92342289Y-31005483D01*
X93505483Y-29842289D01*
X94135000Y-28322503D01*
X94135000Y-26677497D01*
X93505483Y-25157711D01*
X92342289Y-23994517D01*
X90822503Y-23365000D01*
X89177497Y-23365000D01*
X87657711Y-23994517D01*
X86494517Y-25157711D01*
X85865000Y-26677497D01*
X64135000Y-26677497D01*
X63505483Y-25157711D01*
X62342289Y-23994517D01*
X60822503Y-23365000D01*
X59177497Y-23365000D01*
X57657711Y-23994517D01*
X56494517Y-25157711D01*
X55865000Y-26677497D01*
X52456372Y-26677497D01*
X52274577Y-26405423D01*
X51922242Y-26170000D01*
X52274577Y-25934577D01*
X52591740Y-25459909D01*
X52703113Y-24900000D01*
X52591740Y-24340091D01*
X52274577Y-23865423D01*
X51922242Y-23630000D01*
X52274577Y-23394577D01*
X52591740Y-22919909D01*
X52703113Y-22360000D01*
X52591740Y-21800091D01*
X52274577Y-21325423D01*
X51799909Y-21008260D01*
X51381333Y-20925000D01*
X51098667Y-20925000D01*
X50680091Y-21008260D01*
X50205423Y-21325423D01*
X49888260Y-21800091D01*
X49776887Y-22360000D01*
X25735000Y-22360000D01*
X25735000Y-20710000D01*
X114265000Y-20710000D01*
X114265001Y-69290000D01*
G04 #@! TD*
M02*
