M48
;DRILL file {KiCad 5.0.2-bee76a0~70~ubuntu18.04.1} date Thu 06 Jun 2019 20:44:39 CEST
;FORMAT={-:-/ absolute / inch / decimal}
FMAT,2
INCH,TZ
T1C0.0157
T2C0.0197
T3C0.0315
T4C0.0394
T5C0.0598
T6C0.1378
%
G90
G05
T1
X1.378Y-2.3622
X1.5157Y-1.8307
X1.7323Y-2.2638
X1.8701Y-1.752
T2
X3.44Y-1.0827
X3.4702Y-1.0096
X3.4702Y-1.1558
X3.5433Y-0.9793
X3.5433Y-1.186
X3.6164Y-1.0096
X3.6164Y-1.1558
X3.6467Y-1.0827
X2.2589Y-1.0827
X2.2891Y-1.0096
X2.2891Y-1.1558
X2.3622Y-0.9793
X2.3622Y-1.186
X2.4353Y-1.0096
X2.4353Y-1.1558
X2.4656Y-1.0827
X2.2589Y-2.4606
X2.2891Y-2.3876
X2.2891Y-2.5337
X2.3622Y-2.3573
X2.3622Y-2.564
X2.4353Y-2.3876
X2.4353Y-2.5337
X2.4656Y-2.4606
X3.44Y-2.4606
X3.4702Y-2.3876
X3.4702Y-2.5337
X3.5433Y-2.3573
X3.5433Y-2.564
X3.6164Y-2.3876
X3.6164Y-2.5337
X3.6467Y-2.4606
T3
X2.0173Y-0.8803
X2.0173Y-0.9803
X2.0173Y-1.0803
X2.0173Y-1.1803
X2.0173Y-1.2803
X2.0173Y-1.3803
X2.0173Y-1.4803
X2.0173Y-1.5803
X2.0173Y-1.6803
X2.0173Y-1.7803
X2.0173Y-1.9402
X2.0173Y-2.0402
X2.0173Y-2.1402
X2.0173Y-2.2402
X2.0173Y-2.3402
X2.0173Y-2.4402
X2.0173Y-2.5402
X2.0173Y-2.6402
X3.9173Y-1.2402
X3.9173Y-1.3402
X3.9173Y-1.4402
X3.9173Y-1.5402
X3.9173Y-1.6402
X3.9173Y-1.7402
X3.9173Y-1.8402
X3.9173Y-1.9402
X3.9173Y-2.1402
X3.9173Y-2.2402
X3.9173Y-2.3402
X3.9173Y-2.4402
X3.9173Y-2.5402
X3.9173Y-2.6402
T4
X1.6339Y-2.4181
X1.6339Y-2.5181
X1.6339Y-2.6181
T5
X1.1417Y-1.5323
X1.1417Y-1.7323
X1.1417Y-1.9457
X1.1417Y-2.1457
X1.2795Y-1.0827
X1.4795Y-1.0827
X1.6795Y-1.0827
X4.3307Y-1.5945
X4.3307Y-1.7945
X4.3307Y-2.0079
X4.3307Y-2.2079
T6
X3.5433Y-1.0827
X2.3622Y-1.0827
X2.3622Y-2.4606
X3.5433Y-2.4606
T0
M30
