G04 #@! TF.GenerationSoftware,KiCad,Pcbnew,5.0.2-bee76a0~70~ubuntu18.04.1*
G04 #@! TF.CreationDate,2019-06-06T20:44:49+02:00*
G04 #@! TF.ProjectId,dmxBridge,646d7842-7269-4646-9765-2e6b69636164,rev?*
G04 #@! TF.SameCoordinates,Original*
G04 #@! TF.FileFunction,Soldermask,Bot*
G04 #@! TF.FilePolarity,Negative*
%FSLAX46Y46*%
G04 Gerber Fmt 4.6, Leading zero omitted, Abs format (unit mm)*
G04 Created by KiCad (PCBNEW 5.0.2-bee76a0~70~ubuntu18.04.1) date Thu 06 Jun 2019 20:44:49 CEST*
%MOMM*%
%LPD*%
G01*
G04 APERTURE LIST*
%ADD10C,0.100000*%
G04 APERTURE END LIST*
D10*
G36*
X99666821Y-66221313D02*
X99666824Y-66221314D01*
X99666825Y-66221314D01*
X99827239Y-66269975D01*
X99827241Y-66269976D01*
X99827244Y-66269977D01*
X99975078Y-66348995D01*
X100104659Y-66455341D01*
X100211005Y-66584922D01*
X100290023Y-66732756D01*
X100338687Y-66893179D01*
X100355117Y-67060000D01*
X100338687Y-67226821D01*
X100290023Y-67387244D01*
X100211005Y-67535078D01*
X100104659Y-67664659D01*
X99975078Y-67771005D01*
X99827244Y-67850023D01*
X99827241Y-67850024D01*
X99827239Y-67850025D01*
X99666825Y-67898686D01*
X99666824Y-67898686D01*
X99666821Y-67898687D01*
X99541804Y-67911000D01*
X99458196Y-67911000D01*
X99333179Y-67898687D01*
X99333176Y-67898686D01*
X99333175Y-67898686D01*
X99172761Y-67850025D01*
X99172759Y-67850024D01*
X99172756Y-67850023D01*
X99024922Y-67771005D01*
X98895341Y-67664659D01*
X98788995Y-67535078D01*
X98709977Y-67387244D01*
X98661313Y-67226821D01*
X98644883Y-67060000D01*
X98661313Y-66893179D01*
X98709977Y-66732756D01*
X98788995Y-66584922D01*
X98895341Y-66455341D01*
X99024922Y-66348995D01*
X99172756Y-66269977D01*
X99172759Y-66269976D01*
X99172761Y-66269975D01*
X99333175Y-66221314D01*
X99333176Y-66221314D01*
X99333179Y-66221313D01*
X99458196Y-66209000D01*
X99541804Y-66209000D01*
X99666821Y-66221313D01*
X99666821Y-66221313D01*
G37*
G36*
X51406821Y-66221313D02*
X51406824Y-66221314D01*
X51406825Y-66221314D01*
X51567239Y-66269975D01*
X51567241Y-66269976D01*
X51567244Y-66269977D01*
X51715078Y-66348995D01*
X51844659Y-66455341D01*
X51951005Y-66584922D01*
X52030023Y-66732756D01*
X52078687Y-66893179D01*
X52095117Y-67060000D01*
X52078687Y-67226821D01*
X52030023Y-67387244D01*
X51951005Y-67535078D01*
X51844659Y-67664659D01*
X51715078Y-67771005D01*
X51567244Y-67850023D01*
X51567241Y-67850024D01*
X51567239Y-67850025D01*
X51406825Y-67898686D01*
X51406824Y-67898686D01*
X51406821Y-67898687D01*
X51281804Y-67911000D01*
X51198196Y-67911000D01*
X51073179Y-67898687D01*
X51073176Y-67898686D01*
X51073175Y-67898686D01*
X50912761Y-67850025D01*
X50912759Y-67850024D01*
X50912756Y-67850023D01*
X50764922Y-67771005D01*
X50635341Y-67664659D01*
X50528995Y-67535078D01*
X50449977Y-67387244D01*
X50401313Y-67226821D01*
X50384883Y-67060000D01*
X50401313Y-66893179D01*
X50449977Y-66732756D01*
X50528995Y-66584922D01*
X50635341Y-66455341D01*
X50764922Y-66348995D01*
X50912756Y-66269977D01*
X50912759Y-66269976D01*
X50912761Y-66269975D01*
X51073175Y-66221314D01*
X51073176Y-66221314D01*
X51073179Y-66221313D01*
X51198196Y-66209000D01*
X51281804Y-66209000D01*
X51406821Y-66221313D01*
X51406821Y-66221313D01*
G37*
G36*
X42401000Y-67401000D02*
X40599000Y-67401000D01*
X40599000Y-65599000D01*
X42401000Y-65599000D01*
X42401000Y-67401000D01*
X42401000Y-67401000D01*
G37*
G36*
X91035786Y-59085462D02*
X91035788Y-59085463D01*
X91035789Y-59085463D01*
X91682029Y-59353144D01*
X92061683Y-59606821D01*
X92263634Y-59741760D01*
X92758240Y-60236366D01*
X92758242Y-60236369D01*
X93146856Y-60817971D01*
X93323063Y-61243373D01*
X93414538Y-61464214D01*
X93551000Y-62150256D01*
X93551000Y-62849744D01*
X93430208Y-63457009D01*
X93414537Y-63535789D01*
X93146856Y-64182029D01*
X92809565Y-64686821D01*
X92758240Y-64763634D01*
X92263634Y-65258240D01*
X92263631Y-65258242D01*
X91682029Y-65646856D01*
X91035789Y-65914537D01*
X91035788Y-65914537D01*
X91035786Y-65914538D01*
X90349744Y-66051000D01*
X89650256Y-66051000D01*
X88964214Y-65914538D01*
X88964212Y-65914537D01*
X88964211Y-65914537D01*
X88317971Y-65646856D01*
X87736369Y-65258242D01*
X87736366Y-65258240D01*
X87241760Y-64763634D01*
X87190435Y-64686821D01*
X86853144Y-64182029D01*
X86585463Y-63535789D01*
X86569793Y-63457009D01*
X86449000Y-62849744D01*
X86449000Y-62150256D01*
X86585462Y-61464214D01*
X86676937Y-61243373D01*
X86853144Y-60817971D01*
X87241758Y-60236369D01*
X87241760Y-60236366D01*
X87736366Y-59741760D01*
X87938317Y-59606821D01*
X88317971Y-59353144D01*
X88964211Y-59085463D01*
X88964212Y-59085463D01*
X88964214Y-59085462D01*
X89650256Y-58949000D01*
X90349744Y-58949000D01*
X91035786Y-59085462D01*
X91035786Y-59085462D01*
G37*
G36*
X61035786Y-59085462D02*
X61035788Y-59085463D01*
X61035789Y-59085463D01*
X61682029Y-59353144D01*
X62061683Y-59606821D01*
X62263634Y-59741760D01*
X62758240Y-60236366D01*
X62758242Y-60236369D01*
X63146856Y-60817971D01*
X63323063Y-61243373D01*
X63414538Y-61464214D01*
X63551000Y-62150256D01*
X63551000Y-62849744D01*
X63430208Y-63457009D01*
X63414537Y-63535789D01*
X63146856Y-64182029D01*
X62809565Y-64686821D01*
X62758240Y-64763634D01*
X62263634Y-65258240D01*
X62263631Y-65258242D01*
X61682029Y-65646856D01*
X61035789Y-65914537D01*
X61035788Y-65914537D01*
X61035786Y-65914538D01*
X60349744Y-66051000D01*
X59650256Y-66051000D01*
X58964214Y-65914538D01*
X58964212Y-65914537D01*
X58964211Y-65914537D01*
X58317971Y-65646856D01*
X57736369Y-65258242D01*
X57736366Y-65258240D01*
X57241760Y-64763634D01*
X57190435Y-64686821D01*
X56853144Y-64182029D01*
X56585463Y-63535789D01*
X56569793Y-63457009D01*
X56449000Y-62849744D01*
X56449000Y-62150256D01*
X56585462Y-61464214D01*
X56676937Y-61243373D01*
X56853144Y-60817971D01*
X57241758Y-60236369D01*
X57241760Y-60236366D01*
X57736366Y-59741760D01*
X57938317Y-59606821D01*
X58317971Y-59353144D01*
X58964211Y-59085463D01*
X58964212Y-59085463D01*
X58964214Y-59085462D01*
X59650256Y-58949000D01*
X60349744Y-58949000D01*
X61035786Y-59085462D01*
X61035786Y-59085462D01*
G37*
G36*
X99666821Y-63681313D02*
X99666824Y-63681314D01*
X99666825Y-63681314D01*
X99827239Y-63729975D01*
X99827241Y-63729976D01*
X99827244Y-63729977D01*
X99975078Y-63808995D01*
X100104659Y-63915341D01*
X100211005Y-64044922D01*
X100290023Y-64192756D01*
X100338687Y-64353179D01*
X100355117Y-64520000D01*
X100338687Y-64686821D01*
X100338686Y-64686824D01*
X100338686Y-64686825D01*
X100305434Y-64796443D01*
X100290023Y-64847244D01*
X100211005Y-64995078D01*
X100104659Y-65124659D01*
X99975078Y-65231005D01*
X99827244Y-65310023D01*
X99827241Y-65310024D01*
X99827239Y-65310025D01*
X99666825Y-65358686D01*
X99666824Y-65358686D01*
X99666821Y-65358687D01*
X99541804Y-65371000D01*
X99458196Y-65371000D01*
X99333179Y-65358687D01*
X99333176Y-65358686D01*
X99333175Y-65358686D01*
X99172761Y-65310025D01*
X99172759Y-65310024D01*
X99172756Y-65310023D01*
X99024922Y-65231005D01*
X98895341Y-65124659D01*
X98788995Y-64995078D01*
X98709977Y-64847244D01*
X98694567Y-64796443D01*
X98661314Y-64686825D01*
X98661314Y-64686824D01*
X98661313Y-64686821D01*
X98644883Y-64520000D01*
X98661313Y-64353179D01*
X98709977Y-64192756D01*
X98788995Y-64044922D01*
X98895341Y-63915341D01*
X99024922Y-63808995D01*
X99172756Y-63729977D01*
X99172759Y-63729976D01*
X99172761Y-63729975D01*
X99333175Y-63681314D01*
X99333176Y-63681314D01*
X99333179Y-63681313D01*
X99458196Y-63669000D01*
X99541804Y-63669000D01*
X99666821Y-63681313D01*
X99666821Y-63681313D01*
G37*
G36*
X51406821Y-63681313D02*
X51406824Y-63681314D01*
X51406825Y-63681314D01*
X51567239Y-63729975D01*
X51567241Y-63729976D01*
X51567244Y-63729977D01*
X51715078Y-63808995D01*
X51844659Y-63915341D01*
X51951005Y-64044922D01*
X52030023Y-64192756D01*
X52078687Y-64353179D01*
X52095117Y-64520000D01*
X52078687Y-64686821D01*
X52078686Y-64686824D01*
X52078686Y-64686825D01*
X52045434Y-64796443D01*
X52030023Y-64847244D01*
X51951005Y-64995078D01*
X51844659Y-65124659D01*
X51715078Y-65231005D01*
X51567244Y-65310023D01*
X51567241Y-65310024D01*
X51567239Y-65310025D01*
X51406825Y-65358686D01*
X51406824Y-65358686D01*
X51406821Y-65358687D01*
X51281804Y-65371000D01*
X51198196Y-65371000D01*
X51073179Y-65358687D01*
X51073176Y-65358686D01*
X51073175Y-65358686D01*
X50912761Y-65310025D01*
X50912759Y-65310024D01*
X50912756Y-65310023D01*
X50764922Y-65231005D01*
X50635341Y-65124659D01*
X50528995Y-64995078D01*
X50449977Y-64847244D01*
X50434567Y-64796443D01*
X50401314Y-64686825D01*
X50401314Y-64686824D01*
X50401313Y-64686821D01*
X50384883Y-64520000D01*
X50401313Y-64353179D01*
X50449977Y-64192756D01*
X50528995Y-64044922D01*
X50635341Y-63915341D01*
X50764922Y-63808995D01*
X50912756Y-63729977D01*
X50912759Y-63729976D01*
X50912761Y-63729975D01*
X51073175Y-63681314D01*
X51073176Y-63681314D01*
X51073179Y-63681313D01*
X51198196Y-63669000D01*
X51281804Y-63669000D01*
X51406821Y-63681313D01*
X51406821Y-63681313D01*
G37*
G36*
X41610443Y-63065519D02*
X41676627Y-63072037D01*
X41789853Y-63106384D01*
X41846467Y-63123557D01*
X41985087Y-63197652D01*
X42002991Y-63207222D01*
X42038729Y-63236552D01*
X42140186Y-63319814D01*
X42223448Y-63421271D01*
X42252778Y-63457009D01*
X42252779Y-63457011D01*
X42336443Y-63613533D01*
X42336443Y-63613534D01*
X42387963Y-63783373D01*
X42405359Y-63960000D01*
X42387963Y-64136627D01*
X42374190Y-64182029D01*
X42336443Y-64306467D01*
X42286140Y-64400575D01*
X42252778Y-64462991D01*
X42232494Y-64487707D01*
X42140186Y-64600186D01*
X42050242Y-64674000D01*
X42002991Y-64712778D01*
X42002989Y-64712779D01*
X41846467Y-64796443D01*
X41789853Y-64813616D01*
X41676627Y-64847963D01*
X41610443Y-64854481D01*
X41544260Y-64861000D01*
X41455740Y-64861000D01*
X41389557Y-64854481D01*
X41323373Y-64847963D01*
X41210147Y-64813616D01*
X41153533Y-64796443D01*
X40997011Y-64712779D01*
X40997009Y-64712778D01*
X40949758Y-64674000D01*
X40859814Y-64600186D01*
X40767506Y-64487707D01*
X40747222Y-64462991D01*
X40713860Y-64400575D01*
X40663557Y-64306467D01*
X40625810Y-64182029D01*
X40612037Y-64136627D01*
X40594641Y-63960000D01*
X40612037Y-63783373D01*
X40663557Y-63613534D01*
X40663557Y-63613533D01*
X40747221Y-63457011D01*
X40747222Y-63457009D01*
X40776552Y-63421271D01*
X40859814Y-63319814D01*
X40961271Y-63236552D01*
X40997009Y-63207222D01*
X41014913Y-63197652D01*
X41153533Y-63123557D01*
X41210147Y-63106384D01*
X41323373Y-63072037D01*
X41389557Y-63065519D01*
X41455740Y-63059000D01*
X41544260Y-63059000D01*
X41610443Y-63065519D01*
X41610443Y-63065519D01*
G37*
G36*
X51406821Y-61141313D02*
X51406824Y-61141314D01*
X51406825Y-61141314D01*
X51567239Y-61189975D01*
X51567241Y-61189976D01*
X51567244Y-61189977D01*
X51715078Y-61268995D01*
X51844659Y-61375341D01*
X51951005Y-61504922D01*
X52030023Y-61652756D01*
X52078687Y-61813179D01*
X52095117Y-61980000D01*
X52078687Y-62146821D01*
X52078686Y-62146824D01*
X52078686Y-62146825D01*
X52045434Y-62256443D01*
X52030023Y-62307244D01*
X51951005Y-62455078D01*
X51844659Y-62584659D01*
X51715078Y-62691005D01*
X51567244Y-62770023D01*
X51567241Y-62770024D01*
X51567239Y-62770025D01*
X51406825Y-62818686D01*
X51406824Y-62818686D01*
X51406821Y-62818687D01*
X51281804Y-62831000D01*
X51198196Y-62831000D01*
X51073179Y-62818687D01*
X51073176Y-62818686D01*
X51073175Y-62818686D01*
X50912761Y-62770025D01*
X50912759Y-62770024D01*
X50912756Y-62770023D01*
X50764922Y-62691005D01*
X50635341Y-62584659D01*
X50528995Y-62455078D01*
X50449977Y-62307244D01*
X50434567Y-62256443D01*
X50401314Y-62146825D01*
X50401314Y-62146824D01*
X50401313Y-62146821D01*
X50384883Y-61980000D01*
X50401313Y-61813179D01*
X50449977Y-61652756D01*
X50528995Y-61504922D01*
X50635341Y-61375341D01*
X50764922Y-61268995D01*
X50912756Y-61189977D01*
X50912759Y-61189976D01*
X50912761Y-61189975D01*
X51073175Y-61141314D01*
X51073176Y-61141314D01*
X51073179Y-61141313D01*
X51198196Y-61129000D01*
X51281804Y-61129000D01*
X51406821Y-61141313D01*
X51406821Y-61141313D01*
G37*
G36*
X99666821Y-61141313D02*
X99666824Y-61141314D01*
X99666825Y-61141314D01*
X99827239Y-61189975D01*
X99827241Y-61189976D01*
X99827244Y-61189977D01*
X99975078Y-61268995D01*
X100104659Y-61375341D01*
X100211005Y-61504922D01*
X100290023Y-61652756D01*
X100338687Y-61813179D01*
X100355117Y-61980000D01*
X100338687Y-62146821D01*
X100338686Y-62146824D01*
X100338686Y-62146825D01*
X100305434Y-62256443D01*
X100290023Y-62307244D01*
X100211005Y-62455078D01*
X100104659Y-62584659D01*
X99975078Y-62691005D01*
X99827244Y-62770023D01*
X99827241Y-62770024D01*
X99827239Y-62770025D01*
X99666825Y-62818686D01*
X99666824Y-62818686D01*
X99666821Y-62818687D01*
X99541804Y-62831000D01*
X99458196Y-62831000D01*
X99333179Y-62818687D01*
X99333176Y-62818686D01*
X99333175Y-62818686D01*
X99172761Y-62770025D01*
X99172759Y-62770024D01*
X99172756Y-62770023D01*
X99024922Y-62691005D01*
X98895341Y-62584659D01*
X98788995Y-62455078D01*
X98709977Y-62307244D01*
X98694567Y-62256443D01*
X98661314Y-62146825D01*
X98661314Y-62146824D01*
X98661313Y-62146821D01*
X98644883Y-61980000D01*
X98661313Y-61813179D01*
X98709977Y-61652756D01*
X98788995Y-61504922D01*
X98895341Y-61375341D01*
X99024922Y-61268995D01*
X99172756Y-61189977D01*
X99172759Y-61189976D01*
X99172761Y-61189975D01*
X99333175Y-61141314D01*
X99333176Y-61141314D01*
X99333179Y-61141313D01*
X99458196Y-61129000D01*
X99541804Y-61129000D01*
X99666821Y-61141313D01*
X99666821Y-61141313D01*
G37*
G36*
X41610442Y-60525518D02*
X41676627Y-60532037D01*
X41789853Y-60566384D01*
X41846467Y-60583557D01*
X41876153Y-60599425D01*
X42002991Y-60667222D01*
X42028632Y-60688265D01*
X42140186Y-60779814D01*
X42203919Y-60857474D01*
X42252778Y-60917009D01*
X42252779Y-60917011D01*
X42336443Y-61073533D01*
X42336443Y-61073534D01*
X42387963Y-61243373D01*
X42405359Y-61420000D01*
X42387963Y-61596627D01*
X42370936Y-61652756D01*
X42336443Y-61766467D01*
X42262348Y-61905087D01*
X42252778Y-61922991D01*
X42223448Y-61958729D01*
X42140186Y-62060186D01*
X42038729Y-62143448D01*
X42002991Y-62172778D01*
X42002989Y-62172779D01*
X41846467Y-62256443D01*
X41789853Y-62273616D01*
X41676627Y-62307963D01*
X41610443Y-62314481D01*
X41544260Y-62321000D01*
X41455740Y-62321000D01*
X41389557Y-62314481D01*
X41323373Y-62307963D01*
X41210147Y-62273616D01*
X41153533Y-62256443D01*
X40997011Y-62172779D01*
X40997009Y-62172778D01*
X40961271Y-62143448D01*
X40859814Y-62060186D01*
X40776552Y-61958729D01*
X40747222Y-61922991D01*
X40737652Y-61905087D01*
X40663557Y-61766467D01*
X40629064Y-61652756D01*
X40612037Y-61596627D01*
X40594641Y-61420000D01*
X40612037Y-61243373D01*
X40663557Y-61073534D01*
X40663557Y-61073533D01*
X40747221Y-60917011D01*
X40747222Y-60917009D01*
X40796081Y-60857474D01*
X40859814Y-60779814D01*
X40971368Y-60688265D01*
X40997009Y-60667222D01*
X41123847Y-60599425D01*
X41153533Y-60583557D01*
X41210147Y-60566384D01*
X41323373Y-60532037D01*
X41389558Y-60525518D01*
X41455740Y-60519000D01*
X41544260Y-60519000D01*
X41610442Y-60525518D01*
X41610442Y-60525518D01*
G37*
G36*
X51406821Y-58601313D02*
X51406824Y-58601314D01*
X51406825Y-58601314D01*
X51567239Y-58649975D01*
X51567241Y-58649976D01*
X51567244Y-58649977D01*
X51715078Y-58728995D01*
X51844659Y-58835341D01*
X51951005Y-58964922D01*
X52030023Y-59112756D01*
X52078687Y-59273179D01*
X52095117Y-59440000D01*
X52078687Y-59606821D01*
X52078686Y-59606824D01*
X52078686Y-59606825D01*
X52037242Y-59743448D01*
X52030023Y-59767244D01*
X51951005Y-59915078D01*
X51844659Y-60044659D01*
X51715078Y-60151005D01*
X51567244Y-60230023D01*
X51567241Y-60230024D01*
X51567239Y-60230025D01*
X51406825Y-60278686D01*
X51406824Y-60278686D01*
X51406821Y-60278687D01*
X51281804Y-60291000D01*
X51198196Y-60291000D01*
X51073179Y-60278687D01*
X51073176Y-60278686D01*
X51073175Y-60278686D01*
X50912761Y-60230025D01*
X50912759Y-60230024D01*
X50912756Y-60230023D01*
X50764922Y-60151005D01*
X50635341Y-60044659D01*
X50528995Y-59915078D01*
X50449977Y-59767244D01*
X50442759Y-59743448D01*
X50401314Y-59606825D01*
X50401314Y-59606824D01*
X50401313Y-59606821D01*
X50384883Y-59440000D01*
X50401313Y-59273179D01*
X50449977Y-59112756D01*
X50528995Y-58964922D01*
X50635341Y-58835341D01*
X50764922Y-58728995D01*
X50912756Y-58649977D01*
X50912759Y-58649976D01*
X50912761Y-58649975D01*
X51073175Y-58601314D01*
X51073176Y-58601314D01*
X51073179Y-58601313D01*
X51198196Y-58589000D01*
X51281804Y-58589000D01*
X51406821Y-58601313D01*
X51406821Y-58601313D01*
G37*
G36*
X99666821Y-58601313D02*
X99666824Y-58601314D01*
X99666825Y-58601314D01*
X99827239Y-58649975D01*
X99827241Y-58649976D01*
X99827244Y-58649977D01*
X99975078Y-58728995D01*
X100104659Y-58835341D01*
X100211005Y-58964922D01*
X100290023Y-59112756D01*
X100338687Y-59273179D01*
X100355117Y-59440000D01*
X100338687Y-59606821D01*
X100338686Y-59606824D01*
X100338686Y-59606825D01*
X100297242Y-59743448D01*
X100290023Y-59767244D01*
X100211005Y-59915078D01*
X100104659Y-60044659D01*
X99975078Y-60151005D01*
X99827244Y-60230023D01*
X99827241Y-60230024D01*
X99827239Y-60230025D01*
X99666825Y-60278686D01*
X99666824Y-60278686D01*
X99666821Y-60278687D01*
X99541804Y-60291000D01*
X99458196Y-60291000D01*
X99333179Y-60278687D01*
X99333176Y-60278686D01*
X99333175Y-60278686D01*
X99172761Y-60230025D01*
X99172759Y-60230024D01*
X99172756Y-60230023D01*
X99024922Y-60151005D01*
X98895341Y-60044659D01*
X98788995Y-59915078D01*
X98709977Y-59767244D01*
X98702759Y-59743448D01*
X98661314Y-59606825D01*
X98661314Y-59606824D01*
X98661313Y-59606821D01*
X98644883Y-59440000D01*
X98661313Y-59273179D01*
X98709977Y-59112756D01*
X98788995Y-58964922D01*
X98895341Y-58835341D01*
X99024922Y-58728995D01*
X99172756Y-58649977D01*
X99172759Y-58649976D01*
X99172761Y-58649975D01*
X99333175Y-58601314D01*
X99333176Y-58601314D01*
X99333179Y-58601313D01*
X99458196Y-58589000D01*
X99541804Y-58589000D01*
X99666821Y-58601313D01*
X99666821Y-58601313D01*
G37*
G36*
X99666821Y-56061313D02*
X99666824Y-56061314D01*
X99666825Y-56061314D01*
X99827239Y-56109975D01*
X99827241Y-56109976D01*
X99827244Y-56109977D01*
X99975078Y-56188995D01*
X100104659Y-56295341D01*
X100211005Y-56424922D01*
X100290023Y-56572756D01*
X100338687Y-56733179D01*
X100355117Y-56900000D01*
X100338687Y-57066821D01*
X100290023Y-57227244D01*
X100211005Y-57375078D01*
X100104659Y-57504659D01*
X99975078Y-57611005D01*
X99827244Y-57690023D01*
X99827241Y-57690024D01*
X99827239Y-57690025D01*
X99666825Y-57738686D01*
X99666824Y-57738686D01*
X99666821Y-57738687D01*
X99541804Y-57751000D01*
X99458196Y-57751000D01*
X99333179Y-57738687D01*
X99333176Y-57738686D01*
X99333175Y-57738686D01*
X99172761Y-57690025D01*
X99172759Y-57690024D01*
X99172756Y-57690023D01*
X99024922Y-57611005D01*
X98895341Y-57504659D01*
X98788995Y-57375078D01*
X98709977Y-57227244D01*
X98661313Y-57066821D01*
X98644883Y-56900000D01*
X98661313Y-56733179D01*
X98709977Y-56572756D01*
X98788995Y-56424922D01*
X98895341Y-56295341D01*
X99024922Y-56188995D01*
X99172756Y-56109977D01*
X99172759Y-56109976D01*
X99172761Y-56109975D01*
X99333175Y-56061314D01*
X99333176Y-56061314D01*
X99333179Y-56061313D01*
X99458196Y-56049000D01*
X99541804Y-56049000D01*
X99666821Y-56061313D01*
X99666821Y-56061313D01*
G37*
G36*
X51406821Y-56061313D02*
X51406824Y-56061314D01*
X51406825Y-56061314D01*
X51567239Y-56109975D01*
X51567241Y-56109976D01*
X51567244Y-56109977D01*
X51715078Y-56188995D01*
X51844659Y-56295341D01*
X51951005Y-56424922D01*
X52030023Y-56572756D01*
X52078687Y-56733179D01*
X52095117Y-56900000D01*
X52078687Y-57066821D01*
X52030023Y-57227244D01*
X51951005Y-57375078D01*
X51844659Y-57504659D01*
X51715078Y-57611005D01*
X51567244Y-57690023D01*
X51567241Y-57690024D01*
X51567239Y-57690025D01*
X51406825Y-57738686D01*
X51406824Y-57738686D01*
X51406821Y-57738687D01*
X51281804Y-57751000D01*
X51198196Y-57751000D01*
X51073179Y-57738687D01*
X51073176Y-57738686D01*
X51073175Y-57738686D01*
X50912761Y-57690025D01*
X50912759Y-57690024D01*
X50912756Y-57690023D01*
X50764922Y-57611005D01*
X50635341Y-57504659D01*
X50528995Y-57375078D01*
X50449977Y-57227244D01*
X50401313Y-57066821D01*
X50384883Y-56900000D01*
X50401313Y-56733179D01*
X50449977Y-56572756D01*
X50528995Y-56424922D01*
X50635341Y-56295341D01*
X50764922Y-56188995D01*
X50912756Y-56109977D01*
X50912759Y-56109976D01*
X50912761Y-56109975D01*
X51073175Y-56061314D01*
X51073176Y-56061314D01*
X51073179Y-56061313D01*
X51198196Y-56049000D01*
X51281804Y-56049000D01*
X51406821Y-56061313D01*
X51406821Y-56061313D01*
G37*
G36*
X111551000Y-57631000D02*
X108449000Y-57631000D01*
X108449000Y-54529000D01*
X111551000Y-54529000D01*
X111551000Y-57631000D01*
X111551000Y-57631000D01*
G37*
G36*
X30551000Y-56051000D02*
X27449000Y-56051000D01*
X27449000Y-52949000D01*
X30551000Y-52949000D01*
X30551000Y-56051000D01*
X30551000Y-56051000D01*
G37*
G36*
X99666821Y-53521313D02*
X99666824Y-53521314D01*
X99666825Y-53521314D01*
X99827239Y-53569975D01*
X99827241Y-53569976D01*
X99827244Y-53569977D01*
X99975078Y-53648995D01*
X100104659Y-53755341D01*
X100211005Y-53884922D01*
X100290023Y-54032756D01*
X100338687Y-54193179D01*
X100355117Y-54360000D01*
X100338687Y-54526821D01*
X100290023Y-54687244D01*
X100211005Y-54835078D01*
X100104659Y-54964659D01*
X99975078Y-55071005D01*
X99827244Y-55150023D01*
X99827241Y-55150024D01*
X99827239Y-55150025D01*
X99666825Y-55198686D01*
X99666824Y-55198686D01*
X99666821Y-55198687D01*
X99541804Y-55211000D01*
X99458196Y-55211000D01*
X99333179Y-55198687D01*
X99333176Y-55198686D01*
X99333175Y-55198686D01*
X99172761Y-55150025D01*
X99172759Y-55150024D01*
X99172756Y-55150023D01*
X99024922Y-55071005D01*
X98895341Y-54964659D01*
X98788995Y-54835078D01*
X98709977Y-54687244D01*
X98661313Y-54526821D01*
X98644883Y-54360000D01*
X98661313Y-54193179D01*
X98709977Y-54032756D01*
X98788995Y-53884922D01*
X98895341Y-53755341D01*
X99024922Y-53648995D01*
X99172756Y-53569977D01*
X99172759Y-53569976D01*
X99172761Y-53569975D01*
X99333175Y-53521314D01*
X99333176Y-53521314D01*
X99333179Y-53521313D01*
X99458196Y-53509000D01*
X99541804Y-53509000D01*
X99666821Y-53521313D01*
X99666821Y-53521313D01*
G37*
G36*
X51406821Y-53521313D02*
X51406824Y-53521314D01*
X51406825Y-53521314D01*
X51567239Y-53569975D01*
X51567241Y-53569976D01*
X51567244Y-53569977D01*
X51715078Y-53648995D01*
X51844659Y-53755341D01*
X51951005Y-53884922D01*
X52030023Y-54032756D01*
X52078687Y-54193179D01*
X52095117Y-54360000D01*
X52078687Y-54526821D01*
X52030023Y-54687244D01*
X51951005Y-54835078D01*
X51844659Y-54964659D01*
X51715078Y-55071005D01*
X51567244Y-55150023D01*
X51567241Y-55150024D01*
X51567239Y-55150025D01*
X51406825Y-55198686D01*
X51406824Y-55198686D01*
X51406821Y-55198687D01*
X51281804Y-55211000D01*
X51198196Y-55211000D01*
X51073179Y-55198687D01*
X51073176Y-55198686D01*
X51073175Y-55198686D01*
X50912761Y-55150025D01*
X50912759Y-55150024D01*
X50912756Y-55150023D01*
X50764922Y-55071005D01*
X50635341Y-54964659D01*
X50528995Y-54835078D01*
X50449977Y-54687244D01*
X50401313Y-54526821D01*
X50384883Y-54360000D01*
X50401313Y-54193179D01*
X50449977Y-54032756D01*
X50528995Y-53884922D01*
X50635341Y-53755341D01*
X50764922Y-53648995D01*
X50912756Y-53569977D01*
X50912759Y-53569976D01*
X50912761Y-53569975D01*
X51073175Y-53521314D01*
X51073176Y-53521314D01*
X51073179Y-53521313D01*
X51198196Y-53509000D01*
X51281804Y-53509000D01*
X51406821Y-53521313D01*
X51406821Y-53521313D01*
G37*
G36*
X51406821Y-50981313D02*
X51406824Y-50981314D01*
X51406825Y-50981314D01*
X51567239Y-51029975D01*
X51567241Y-51029976D01*
X51567244Y-51029977D01*
X51715078Y-51108995D01*
X51844659Y-51215341D01*
X51951005Y-51344922D01*
X52030023Y-51492756D01*
X52078687Y-51653179D01*
X52095117Y-51820000D01*
X52078687Y-51986821D01*
X52078686Y-51986824D01*
X52078686Y-51986825D01*
X52078116Y-51988705D01*
X52030023Y-52147244D01*
X51951005Y-52295078D01*
X51844659Y-52424659D01*
X51715078Y-52531005D01*
X51567244Y-52610023D01*
X51567241Y-52610024D01*
X51567239Y-52610025D01*
X51406825Y-52658686D01*
X51406824Y-52658686D01*
X51406821Y-52658687D01*
X51281804Y-52671000D01*
X51198196Y-52671000D01*
X51073179Y-52658687D01*
X51073176Y-52658686D01*
X51073175Y-52658686D01*
X50912761Y-52610025D01*
X50912759Y-52610024D01*
X50912756Y-52610023D01*
X50764922Y-52531005D01*
X50635341Y-52424659D01*
X50528995Y-52295078D01*
X50449977Y-52147244D01*
X50401885Y-51988705D01*
X50401314Y-51986825D01*
X50401314Y-51986824D01*
X50401313Y-51986821D01*
X50384883Y-51820000D01*
X50401313Y-51653179D01*
X50449977Y-51492756D01*
X50528995Y-51344922D01*
X50635341Y-51215341D01*
X50764922Y-51108995D01*
X50912756Y-51029977D01*
X50912759Y-51029976D01*
X50912761Y-51029975D01*
X51073175Y-50981314D01*
X51073176Y-50981314D01*
X51073179Y-50981313D01*
X51198196Y-50969000D01*
X51281804Y-50969000D01*
X51406821Y-50981313D01*
X51406821Y-50981313D01*
G37*
G36*
X110352527Y-49488736D02*
X110452410Y-49508604D01*
X110734674Y-49625521D01*
X110988705Y-49795259D01*
X111204741Y-50011295D01*
X111374479Y-50265326D01*
X111491396Y-50547590D01*
X111551000Y-50847240D01*
X111551000Y-51152760D01*
X111491396Y-51452410D01*
X111374479Y-51734674D01*
X111204741Y-51988705D01*
X110988705Y-52204741D01*
X110734674Y-52374479D01*
X110452410Y-52491396D01*
X110352527Y-52511264D01*
X110152762Y-52551000D01*
X109847238Y-52551000D01*
X109647473Y-52511264D01*
X109547590Y-52491396D01*
X109265326Y-52374479D01*
X109011295Y-52204741D01*
X108795259Y-51988705D01*
X108625521Y-51734674D01*
X108508604Y-51452410D01*
X108449000Y-51152760D01*
X108449000Y-50847240D01*
X108508604Y-50547590D01*
X108625521Y-50265326D01*
X108795259Y-50011295D01*
X109011295Y-49795259D01*
X109265326Y-49625521D01*
X109547590Y-49508604D01*
X109647473Y-49488736D01*
X109847238Y-49449000D01*
X110152762Y-49449000D01*
X110352527Y-49488736D01*
X110352527Y-49488736D01*
G37*
G36*
X29352527Y-47908736D02*
X29452410Y-47928604D01*
X29734674Y-48045521D01*
X29988705Y-48215259D01*
X30204741Y-48431295D01*
X30374479Y-48685326D01*
X30491396Y-48967590D01*
X30551000Y-49267240D01*
X30551000Y-49572760D01*
X30491396Y-49872410D01*
X30374479Y-50154674D01*
X30204741Y-50408705D01*
X29988705Y-50624741D01*
X29734674Y-50794479D01*
X29452410Y-50911396D01*
X29352527Y-50931264D01*
X29152762Y-50971000D01*
X28847238Y-50971000D01*
X28647473Y-50931264D01*
X28547590Y-50911396D01*
X28265326Y-50794479D01*
X28011295Y-50624741D01*
X27795259Y-50408705D01*
X27625521Y-50154674D01*
X27508604Y-49872410D01*
X27449000Y-49572760D01*
X27449000Y-49267240D01*
X27508604Y-48967590D01*
X27625521Y-48685326D01*
X27795259Y-48431295D01*
X28011295Y-48215259D01*
X28265326Y-48045521D01*
X28547590Y-47928604D01*
X28647473Y-47908736D01*
X28847238Y-47869000D01*
X29152762Y-47869000D01*
X29352527Y-47908736D01*
X29352527Y-47908736D01*
G37*
G36*
X99666821Y-48441313D02*
X99666824Y-48441314D01*
X99666825Y-48441314D01*
X99827239Y-48489975D01*
X99827241Y-48489976D01*
X99827244Y-48489977D01*
X99975078Y-48568995D01*
X100104659Y-48675341D01*
X100211005Y-48804922D01*
X100290023Y-48952756D01*
X100290024Y-48952759D01*
X100290025Y-48952761D01*
X100338686Y-49113175D01*
X100338687Y-49113179D01*
X100355117Y-49280000D01*
X100338687Y-49446821D01*
X100338686Y-49446824D01*
X100338686Y-49446825D01*
X100319946Y-49508604D01*
X100290023Y-49607244D01*
X100211005Y-49755078D01*
X100104659Y-49884659D01*
X99975078Y-49991005D01*
X99827244Y-50070023D01*
X99827241Y-50070024D01*
X99827239Y-50070025D01*
X99666825Y-50118686D01*
X99666824Y-50118686D01*
X99666821Y-50118687D01*
X99541804Y-50131000D01*
X99458196Y-50131000D01*
X99333179Y-50118687D01*
X99333176Y-50118686D01*
X99333175Y-50118686D01*
X99172761Y-50070025D01*
X99172759Y-50070024D01*
X99172756Y-50070023D01*
X99024922Y-49991005D01*
X98895341Y-49884659D01*
X98788995Y-49755078D01*
X98709977Y-49607244D01*
X98680055Y-49508604D01*
X98661314Y-49446825D01*
X98661314Y-49446824D01*
X98661313Y-49446821D01*
X98644883Y-49280000D01*
X98661313Y-49113179D01*
X98661314Y-49113175D01*
X98709975Y-48952761D01*
X98709976Y-48952759D01*
X98709977Y-48952756D01*
X98788995Y-48804922D01*
X98895341Y-48675341D01*
X99024922Y-48568995D01*
X99172756Y-48489977D01*
X99172759Y-48489976D01*
X99172761Y-48489975D01*
X99333175Y-48441314D01*
X99333176Y-48441314D01*
X99333179Y-48441313D01*
X99458196Y-48429000D01*
X99541804Y-48429000D01*
X99666821Y-48441313D01*
X99666821Y-48441313D01*
G37*
G36*
X51406821Y-48441313D02*
X51406824Y-48441314D01*
X51406825Y-48441314D01*
X51567239Y-48489975D01*
X51567241Y-48489976D01*
X51567244Y-48489977D01*
X51715078Y-48568995D01*
X51844659Y-48675341D01*
X51951005Y-48804922D01*
X52030023Y-48952756D01*
X52030024Y-48952759D01*
X52030025Y-48952761D01*
X52078686Y-49113175D01*
X52078687Y-49113179D01*
X52095117Y-49280000D01*
X52078687Y-49446821D01*
X52078686Y-49446824D01*
X52078686Y-49446825D01*
X52059946Y-49508604D01*
X52030023Y-49607244D01*
X51951005Y-49755078D01*
X51844659Y-49884659D01*
X51715078Y-49991005D01*
X51567244Y-50070023D01*
X51567241Y-50070024D01*
X51567239Y-50070025D01*
X51406825Y-50118686D01*
X51406824Y-50118686D01*
X51406821Y-50118687D01*
X51281804Y-50131000D01*
X51198196Y-50131000D01*
X51073179Y-50118687D01*
X51073176Y-50118686D01*
X51073175Y-50118686D01*
X50912761Y-50070025D01*
X50912759Y-50070024D01*
X50912756Y-50070023D01*
X50764922Y-49991005D01*
X50635341Y-49884659D01*
X50528995Y-49755078D01*
X50449977Y-49607244D01*
X50420055Y-49508604D01*
X50401314Y-49446825D01*
X50401314Y-49446824D01*
X50401313Y-49446821D01*
X50384883Y-49280000D01*
X50401313Y-49113179D01*
X50401314Y-49113175D01*
X50449975Y-48952761D01*
X50449976Y-48952759D01*
X50449977Y-48952756D01*
X50528995Y-48804922D01*
X50635341Y-48675341D01*
X50764922Y-48568995D01*
X50912756Y-48489977D01*
X50912759Y-48489976D01*
X50912761Y-48489975D01*
X51073175Y-48441314D01*
X51073176Y-48441314D01*
X51073179Y-48441313D01*
X51198196Y-48429000D01*
X51281804Y-48429000D01*
X51406821Y-48441313D01*
X51406821Y-48441313D01*
G37*
G36*
X99666821Y-45901313D02*
X99666824Y-45901314D01*
X99666825Y-45901314D01*
X99827239Y-45949975D01*
X99827241Y-45949976D01*
X99827244Y-45949977D01*
X99975078Y-46028995D01*
X100104659Y-46135341D01*
X100211005Y-46264922D01*
X100290023Y-46412756D01*
X100290024Y-46412759D01*
X100290025Y-46412761D01*
X100338686Y-46573175D01*
X100338687Y-46573179D01*
X100355117Y-46740000D01*
X100338687Y-46906821D01*
X100290023Y-47067244D01*
X100211005Y-47215078D01*
X100104659Y-47344659D01*
X99975078Y-47451005D01*
X99827244Y-47530023D01*
X99827241Y-47530024D01*
X99827239Y-47530025D01*
X99666825Y-47578686D01*
X99666824Y-47578686D01*
X99666821Y-47578687D01*
X99541804Y-47591000D01*
X99458196Y-47591000D01*
X99333179Y-47578687D01*
X99333176Y-47578686D01*
X99333175Y-47578686D01*
X99172761Y-47530025D01*
X99172759Y-47530024D01*
X99172756Y-47530023D01*
X99024922Y-47451005D01*
X98895341Y-47344659D01*
X98788995Y-47215078D01*
X98709977Y-47067244D01*
X98661313Y-46906821D01*
X98644883Y-46740000D01*
X98661313Y-46573179D01*
X98661314Y-46573175D01*
X98709975Y-46412761D01*
X98709976Y-46412759D01*
X98709977Y-46412756D01*
X98788995Y-46264922D01*
X98895341Y-46135341D01*
X99024922Y-46028995D01*
X99172756Y-45949977D01*
X99172759Y-45949976D01*
X99172761Y-45949975D01*
X99333175Y-45901314D01*
X99333176Y-45901314D01*
X99333179Y-45901313D01*
X99458196Y-45889000D01*
X99541804Y-45889000D01*
X99666821Y-45901313D01*
X99666821Y-45901313D01*
G37*
G36*
X110352527Y-44068736D02*
X110452410Y-44088604D01*
X110734674Y-44205521D01*
X110988705Y-44375259D01*
X111204741Y-44591295D01*
X111374479Y-44845326D01*
X111491396Y-45127590D01*
X111551000Y-45427240D01*
X111551000Y-45732760D01*
X111491396Y-46032410D01*
X111374479Y-46314674D01*
X111204741Y-46568705D01*
X110988705Y-46784741D01*
X110734674Y-46954479D01*
X110452410Y-47071396D01*
X110352527Y-47091264D01*
X110152762Y-47131000D01*
X109847238Y-47131000D01*
X109647473Y-47091264D01*
X109547590Y-47071396D01*
X109265326Y-46954479D01*
X109011295Y-46784741D01*
X108795259Y-46568705D01*
X108625521Y-46314674D01*
X108508604Y-46032410D01*
X108449000Y-45732760D01*
X108449000Y-45427240D01*
X108508604Y-45127590D01*
X108625521Y-44845326D01*
X108795259Y-44591295D01*
X109011295Y-44375259D01*
X109265326Y-44205521D01*
X109547590Y-44088604D01*
X109647473Y-44068736D01*
X109847238Y-44029000D01*
X110152762Y-44029000D01*
X110352527Y-44068736D01*
X110352527Y-44068736D01*
G37*
G36*
X51406821Y-44381313D02*
X51406824Y-44381314D01*
X51406825Y-44381314D01*
X51567239Y-44429975D01*
X51567241Y-44429976D01*
X51567244Y-44429977D01*
X51715078Y-44508995D01*
X51844659Y-44615341D01*
X51951005Y-44744922D01*
X52030023Y-44892756D01*
X52030024Y-44892759D01*
X52030025Y-44892761D01*
X52074291Y-45038686D01*
X52078687Y-45053179D01*
X52095117Y-45220000D01*
X52078687Y-45386821D01*
X52030023Y-45547244D01*
X51951005Y-45695078D01*
X51844659Y-45824659D01*
X51715078Y-45931005D01*
X51567244Y-46010023D01*
X51567241Y-46010024D01*
X51567239Y-46010025D01*
X51406825Y-46058686D01*
X51406824Y-46058686D01*
X51406821Y-46058687D01*
X51281804Y-46071000D01*
X51198196Y-46071000D01*
X51073179Y-46058687D01*
X51073176Y-46058686D01*
X51073175Y-46058686D01*
X50912761Y-46010025D01*
X50912759Y-46010024D01*
X50912756Y-46010023D01*
X50764922Y-45931005D01*
X50635341Y-45824659D01*
X50528995Y-45695078D01*
X50449977Y-45547244D01*
X50401313Y-45386821D01*
X50384883Y-45220000D01*
X50401313Y-45053179D01*
X50405709Y-45038686D01*
X50449975Y-44892761D01*
X50449976Y-44892759D01*
X50449977Y-44892756D01*
X50528995Y-44744922D01*
X50635341Y-44615341D01*
X50764922Y-44508995D01*
X50912756Y-44429977D01*
X50912759Y-44429976D01*
X50912761Y-44429975D01*
X51073175Y-44381314D01*
X51073176Y-44381314D01*
X51073179Y-44381313D01*
X51198196Y-44369000D01*
X51281804Y-44369000D01*
X51406821Y-44381313D01*
X51406821Y-44381313D01*
G37*
G36*
X30551000Y-45551000D02*
X27449000Y-45551000D01*
X27449000Y-42449000D01*
X30551000Y-42449000D01*
X30551000Y-45551000D01*
X30551000Y-45551000D01*
G37*
G36*
X99666821Y-43361313D02*
X99666824Y-43361314D01*
X99666825Y-43361314D01*
X99827239Y-43409975D01*
X99827241Y-43409976D01*
X99827244Y-43409977D01*
X99975078Y-43488995D01*
X100104659Y-43595341D01*
X100211005Y-43724922D01*
X100290023Y-43872756D01*
X100290024Y-43872759D01*
X100290025Y-43872761D01*
X100338686Y-44033175D01*
X100338687Y-44033179D01*
X100355117Y-44200000D01*
X100338687Y-44366821D01*
X100338686Y-44366824D01*
X100338686Y-44366825D01*
X100295559Y-44508996D01*
X100290023Y-44527244D01*
X100211005Y-44675078D01*
X100104659Y-44804659D01*
X99975078Y-44911005D01*
X99827244Y-44990023D01*
X99827241Y-44990024D01*
X99827239Y-44990025D01*
X99666825Y-45038686D01*
X99666824Y-45038686D01*
X99666821Y-45038687D01*
X99541804Y-45051000D01*
X99458196Y-45051000D01*
X99333179Y-45038687D01*
X99333176Y-45038686D01*
X99333175Y-45038686D01*
X99172761Y-44990025D01*
X99172759Y-44990024D01*
X99172756Y-44990023D01*
X99024922Y-44911005D01*
X98895341Y-44804659D01*
X98788995Y-44675078D01*
X98709977Y-44527244D01*
X98704442Y-44508996D01*
X98661314Y-44366825D01*
X98661314Y-44366824D01*
X98661313Y-44366821D01*
X98644883Y-44200000D01*
X98661313Y-44033179D01*
X98661314Y-44033175D01*
X98709975Y-43872761D01*
X98709976Y-43872759D01*
X98709977Y-43872756D01*
X98788995Y-43724922D01*
X98895341Y-43595341D01*
X99024922Y-43488995D01*
X99172756Y-43409977D01*
X99172759Y-43409976D01*
X99172761Y-43409975D01*
X99333175Y-43361314D01*
X99333176Y-43361314D01*
X99333179Y-43361313D01*
X99458196Y-43349000D01*
X99541804Y-43349000D01*
X99666821Y-43361313D01*
X99666821Y-43361313D01*
G37*
G36*
X51406821Y-41841313D02*
X51406824Y-41841314D01*
X51406825Y-41841314D01*
X51567239Y-41889975D01*
X51567241Y-41889976D01*
X51567244Y-41889977D01*
X51715078Y-41968995D01*
X51844659Y-42075341D01*
X51951005Y-42204922D01*
X52030023Y-42352756D01*
X52030024Y-42352759D01*
X52030025Y-42352761D01*
X52074291Y-42498686D01*
X52078687Y-42513179D01*
X52095117Y-42680000D01*
X52078687Y-42846821D01*
X52030023Y-43007244D01*
X51951005Y-43155078D01*
X51844659Y-43284659D01*
X51715078Y-43391005D01*
X51567244Y-43470023D01*
X51567241Y-43470024D01*
X51567239Y-43470025D01*
X51406825Y-43518686D01*
X51406824Y-43518686D01*
X51406821Y-43518687D01*
X51281804Y-43531000D01*
X51198196Y-43531000D01*
X51073179Y-43518687D01*
X51073176Y-43518686D01*
X51073175Y-43518686D01*
X50912761Y-43470025D01*
X50912759Y-43470024D01*
X50912756Y-43470023D01*
X50764922Y-43391005D01*
X50635341Y-43284659D01*
X50528995Y-43155078D01*
X50449977Y-43007244D01*
X50401313Y-42846821D01*
X50384883Y-42680000D01*
X50401313Y-42513179D01*
X50405709Y-42498686D01*
X50449975Y-42352761D01*
X50449976Y-42352759D01*
X50449977Y-42352756D01*
X50528995Y-42204922D01*
X50635341Y-42075341D01*
X50764922Y-41968995D01*
X50912756Y-41889977D01*
X50912759Y-41889976D01*
X50912761Y-41889975D01*
X51073175Y-41841314D01*
X51073176Y-41841314D01*
X51073179Y-41841313D01*
X51198196Y-41829000D01*
X51281804Y-41829000D01*
X51406821Y-41841313D01*
X51406821Y-41841313D01*
G37*
G36*
X99666821Y-40821313D02*
X99666824Y-40821314D01*
X99666825Y-40821314D01*
X99827239Y-40869975D01*
X99827241Y-40869976D01*
X99827244Y-40869977D01*
X99975078Y-40948995D01*
X100104659Y-41055341D01*
X100211005Y-41184922D01*
X100290023Y-41332756D01*
X100338687Y-41493179D01*
X100355117Y-41660000D01*
X100338687Y-41826821D01*
X100338686Y-41826824D01*
X100338686Y-41826825D01*
X100295559Y-41968996D01*
X100290023Y-41987244D01*
X100211005Y-42135078D01*
X100104659Y-42264659D01*
X99975078Y-42371005D01*
X99827244Y-42450023D01*
X99827241Y-42450024D01*
X99827239Y-42450025D01*
X99666825Y-42498686D01*
X99666824Y-42498686D01*
X99666821Y-42498687D01*
X99541804Y-42511000D01*
X99458196Y-42511000D01*
X99333179Y-42498687D01*
X99333176Y-42498686D01*
X99333175Y-42498686D01*
X99172761Y-42450025D01*
X99172759Y-42450024D01*
X99172756Y-42450023D01*
X99024922Y-42371005D01*
X98895341Y-42264659D01*
X98788995Y-42135078D01*
X98709977Y-41987244D01*
X98704442Y-41968996D01*
X98661314Y-41826825D01*
X98661314Y-41826824D01*
X98661313Y-41826821D01*
X98644883Y-41660000D01*
X98661313Y-41493179D01*
X98709977Y-41332756D01*
X98788995Y-41184922D01*
X98895341Y-41055341D01*
X99024922Y-40948995D01*
X99172756Y-40869977D01*
X99172759Y-40869976D01*
X99172761Y-40869975D01*
X99333175Y-40821314D01*
X99333176Y-40821314D01*
X99333179Y-40821313D01*
X99458196Y-40809000D01*
X99541804Y-40809000D01*
X99666821Y-40821313D01*
X99666821Y-40821313D01*
G37*
G36*
X111551000Y-42051000D02*
X108449000Y-42051000D01*
X108449000Y-38949000D01*
X111551000Y-38949000D01*
X111551000Y-42051000D01*
X111551000Y-42051000D01*
G37*
G36*
X51406821Y-39301313D02*
X51406824Y-39301314D01*
X51406825Y-39301314D01*
X51567239Y-39349975D01*
X51567241Y-39349976D01*
X51567244Y-39349977D01*
X51715078Y-39428995D01*
X51844659Y-39535341D01*
X51951005Y-39664922D01*
X52030023Y-39812756D01*
X52030024Y-39812759D01*
X52030025Y-39812761D01*
X52074291Y-39958686D01*
X52078687Y-39973179D01*
X52095117Y-40140000D01*
X52078687Y-40306821D01*
X52078686Y-40306824D01*
X52078686Y-40306825D01*
X52046965Y-40411396D01*
X52030023Y-40467244D01*
X51951005Y-40615078D01*
X51844659Y-40744659D01*
X51715078Y-40851005D01*
X51567244Y-40930023D01*
X51567241Y-40930024D01*
X51567239Y-40930025D01*
X51406825Y-40978686D01*
X51406824Y-40978686D01*
X51406821Y-40978687D01*
X51281804Y-40991000D01*
X51198196Y-40991000D01*
X51073179Y-40978687D01*
X51073176Y-40978686D01*
X51073175Y-40978686D01*
X50912761Y-40930025D01*
X50912759Y-40930024D01*
X50912756Y-40930023D01*
X50764922Y-40851005D01*
X50635341Y-40744659D01*
X50528995Y-40615078D01*
X50449977Y-40467244D01*
X50433036Y-40411396D01*
X50401314Y-40306825D01*
X50401314Y-40306824D01*
X50401313Y-40306821D01*
X50384883Y-40140000D01*
X50401313Y-39973179D01*
X50405709Y-39958686D01*
X50449975Y-39812761D01*
X50449976Y-39812759D01*
X50449977Y-39812756D01*
X50528995Y-39664922D01*
X50635341Y-39535341D01*
X50764922Y-39428995D01*
X50912756Y-39349977D01*
X50912759Y-39349976D01*
X50912761Y-39349975D01*
X51073175Y-39301314D01*
X51073176Y-39301314D01*
X51073179Y-39301313D01*
X51198196Y-39289000D01*
X51281804Y-39289000D01*
X51406821Y-39301313D01*
X51406821Y-39301313D01*
G37*
G36*
X29352527Y-37408736D02*
X29452410Y-37428604D01*
X29734674Y-37545521D01*
X29988705Y-37715259D01*
X30204741Y-37931295D01*
X30374479Y-38185326D01*
X30479424Y-38438687D01*
X30491396Y-38467591D01*
X30551000Y-38767238D01*
X30551000Y-39072762D01*
X30511264Y-39272527D01*
X30491396Y-39372410D01*
X30374479Y-39654674D01*
X30204741Y-39908705D01*
X29988705Y-40124741D01*
X29734674Y-40294479D01*
X29452410Y-40411396D01*
X29352527Y-40431264D01*
X29152762Y-40471000D01*
X28847238Y-40471000D01*
X28647473Y-40431264D01*
X28547590Y-40411396D01*
X28265326Y-40294479D01*
X28011295Y-40124741D01*
X27795259Y-39908705D01*
X27625521Y-39654674D01*
X27508604Y-39372410D01*
X27488736Y-39272527D01*
X27449000Y-39072762D01*
X27449000Y-38767238D01*
X27508604Y-38467591D01*
X27520576Y-38438687D01*
X27625521Y-38185326D01*
X27795259Y-37931295D01*
X28011295Y-37715259D01*
X28265326Y-37545521D01*
X28547590Y-37428604D01*
X28647473Y-37408736D01*
X28847238Y-37369000D01*
X29152762Y-37369000D01*
X29352527Y-37408736D01*
X29352527Y-37408736D01*
G37*
G36*
X99666821Y-38281313D02*
X99666824Y-38281314D01*
X99666825Y-38281314D01*
X99827239Y-38329975D01*
X99827241Y-38329976D01*
X99827244Y-38329977D01*
X99975078Y-38408995D01*
X100104659Y-38515341D01*
X100211005Y-38644922D01*
X100290023Y-38792756D01*
X100290024Y-38792759D01*
X100290025Y-38792761D01*
X100338686Y-38953175D01*
X100338687Y-38953179D01*
X100355117Y-39120000D01*
X100338687Y-39286821D01*
X100338686Y-39286824D01*
X100338686Y-39286825D01*
X100295559Y-39428996D01*
X100290023Y-39447244D01*
X100211005Y-39595078D01*
X100104659Y-39724659D01*
X99975078Y-39831005D01*
X99827244Y-39910023D01*
X99827241Y-39910024D01*
X99827239Y-39910025D01*
X99666825Y-39958686D01*
X99666824Y-39958686D01*
X99666821Y-39958687D01*
X99541804Y-39971000D01*
X99458196Y-39971000D01*
X99333179Y-39958687D01*
X99333176Y-39958686D01*
X99333175Y-39958686D01*
X99172761Y-39910025D01*
X99172759Y-39910024D01*
X99172756Y-39910023D01*
X99024922Y-39831005D01*
X98895341Y-39724659D01*
X98788995Y-39595078D01*
X98709977Y-39447244D01*
X98704442Y-39428996D01*
X98661314Y-39286825D01*
X98661314Y-39286824D01*
X98661313Y-39286821D01*
X98644883Y-39120000D01*
X98661313Y-38953179D01*
X98661314Y-38953175D01*
X98709975Y-38792761D01*
X98709976Y-38792759D01*
X98709977Y-38792756D01*
X98788995Y-38644922D01*
X98895341Y-38515341D01*
X99024922Y-38408995D01*
X99172756Y-38329977D01*
X99172759Y-38329976D01*
X99172761Y-38329975D01*
X99333175Y-38281314D01*
X99333176Y-38281314D01*
X99333179Y-38281313D01*
X99458196Y-38269000D01*
X99541804Y-38269000D01*
X99666821Y-38281313D01*
X99666821Y-38281313D01*
G37*
G36*
X51406821Y-36761313D02*
X51406824Y-36761314D01*
X51406825Y-36761314D01*
X51567239Y-36809975D01*
X51567241Y-36809976D01*
X51567244Y-36809977D01*
X51715078Y-36888995D01*
X51844659Y-36995341D01*
X51951005Y-37124922D01*
X52030023Y-37272756D01*
X52030024Y-37272759D01*
X52030025Y-37272761D01*
X52074291Y-37418686D01*
X52078687Y-37433179D01*
X52095117Y-37600000D01*
X52078687Y-37766821D01*
X52030023Y-37927244D01*
X51951005Y-38075078D01*
X51844659Y-38204659D01*
X51715078Y-38311005D01*
X51567244Y-38390023D01*
X51567241Y-38390024D01*
X51567239Y-38390025D01*
X51406825Y-38438686D01*
X51406824Y-38438686D01*
X51406821Y-38438687D01*
X51281804Y-38451000D01*
X51198196Y-38451000D01*
X51073179Y-38438687D01*
X51073176Y-38438686D01*
X51073175Y-38438686D01*
X50912761Y-38390025D01*
X50912759Y-38390024D01*
X50912756Y-38390023D01*
X50764922Y-38311005D01*
X50635341Y-38204659D01*
X50528995Y-38075078D01*
X50449977Y-37927244D01*
X50401313Y-37766821D01*
X50384883Y-37600000D01*
X50401313Y-37433179D01*
X50405709Y-37418686D01*
X50449975Y-37272761D01*
X50449976Y-37272759D01*
X50449977Y-37272756D01*
X50528995Y-37124922D01*
X50635341Y-36995341D01*
X50764922Y-36888995D01*
X50912756Y-36809977D01*
X50912759Y-36809976D01*
X50912761Y-36809975D01*
X51073175Y-36761314D01*
X51073176Y-36761314D01*
X51073179Y-36761313D01*
X51198196Y-36749000D01*
X51281804Y-36749000D01*
X51406821Y-36761313D01*
X51406821Y-36761313D01*
G37*
G36*
X99666821Y-35741313D02*
X99666824Y-35741314D01*
X99666825Y-35741314D01*
X99827239Y-35789975D01*
X99827241Y-35789976D01*
X99827244Y-35789977D01*
X99975078Y-35868995D01*
X100104659Y-35975341D01*
X100211005Y-36104922D01*
X100290023Y-36252756D01*
X100338687Y-36413179D01*
X100355117Y-36580000D01*
X100338687Y-36746821D01*
X100338686Y-36746824D01*
X100338686Y-36746825D01*
X100295559Y-36888996D01*
X100290023Y-36907244D01*
X100211005Y-37055078D01*
X100104659Y-37184659D01*
X99975078Y-37291005D01*
X99827244Y-37370023D01*
X99827241Y-37370024D01*
X99827239Y-37370025D01*
X99666825Y-37418686D01*
X99666824Y-37418686D01*
X99666821Y-37418687D01*
X99541804Y-37431000D01*
X99458196Y-37431000D01*
X99333179Y-37418687D01*
X99333176Y-37418686D01*
X99333175Y-37418686D01*
X99172761Y-37370025D01*
X99172759Y-37370024D01*
X99172756Y-37370023D01*
X99024922Y-37291005D01*
X98895341Y-37184659D01*
X98788995Y-37055078D01*
X98709977Y-36907244D01*
X98704442Y-36888996D01*
X98661314Y-36746825D01*
X98661314Y-36746824D01*
X98661313Y-36746821D01*
X98644883Y-36580000D01*
X98661313Y-36413179D01*
X98709977Y-36252756D01*
X98788995Y-36104922D01*
X98895341Y-35975341D01*
X99024922Y-35868995D01*
X99172756Y-35789977D01*
X99172759Y-35789976D01*
X99172761Y-35789975D01*
X99333175Y-35741314D01*
X99333176Y-35741314D01*
X99333179Y-35741313D01*
X99458196Y-35729000D01*
X99541804Y-35729000D01*
X99666821Y-35741313D01*
X99666821Y-35741313D01*
G37*
G36*
X51406821Y-34221313D02*
X51406824Y-34221314D01*
X51406825Y-34221314D01*
X51567239Y-34269975D01*
X51567241Y-34269976D01*
X51567244Y-34269977D01*
X51715078Y-34348995D01*
X51844659Y-34455341D01*
X51951005Y-34584922D01*
X52030023Y-34732756D01*
X52030024Y-34732759D01*
X52030025Y-34732761D01*
X52074291Y-34878686D01*
X52078687Y-34893179D01*
X52095117Y-35060000D01*
X52078687Y-35226821D01*
X52030023Y-35387244D01*
X51951005Y-35535078D01*
X51844659Y-35664659D01*
X51715078Y-35771005D01*
X51567244Y-35850023D01*
X51567241Y-35850024D01*
X51567239Y-35850025D01*
X51406825Y-35898686D01*
X51406824Y-35898686D01*
X51406821Y-35898687D01*
X51281804Y-35911000D01*
X51198196Y-35911000D01*
X51073179Y-35898687D01*
X51073176Y-35898686D01*
X51073175Y-35898686D01*
X50912761Y-35850025D01*
X50912759Y-35850024D01*
X50912756Y-35850023D01*
X50764922Y-35771005D01*
X50635341Y-35664659D01*
X50528995Y-35535078D01*
X50449977Y-35387244D01*
X50401313Y-35226821D01*
X50384883Y-35060000D01*
X50401313Y-34893179D01*
X50405709Y-34878686D01*
X50449975Y-34732761D01*
X50449976Y-34732759D01*
X50449977Y-34732756D01*
X50528995Y-34584922D01*
X50635341Y-34455341D01*
X50764922Y-34348995D01*
X50912756Y-34269977D01*
X50912759Y-34269976D01*
X50912761Y-34269975D01*
X51073175Y-34221314D01*
X51073176Y-34221314D01*
X51073179Y-34221313D01*
X51198196Y-34209000D01*
X51281804Y-34209000D01*
X51406821Y-34221313D01*
X51406821Y-34221313D01*
G37*
G36*
X99666821Y-33201313D02*
X99666824Y-33201314D01*
X99666825Y-33201314D01*
X99827239Y-33249975D01*
X99827241Y-33249976D01*
X99827244Y-33249977D01*
X99975078Y-33328995D01*
X100104659Y-33435341D01*
X100211005Y-33564922D01*
X100290023Y-33712756D01*
X100338687Y-33873179D01*
X100355117Y-34040000D01*
X100338687Y-34206821D01*
X100338686Y-34206824D01*
X100338686Y-34206825D01*
X100295559Y-34348996D01*
X100290023Y-34367244D01*
X100211005Y-34515078D01*
X100104659Y-34644659D01*
X99975078Y-34751005D01*
X99827244Y-34830023D01*
X99827241Y-34830024D01*
X99827239Y-34830025D01*
X99666825Y-34878686D01*
X99666824Y-34878686D01*
X99666821Y-34878687D01*
X99541804Y-34891000D01*
X99458196Y-34891000D01*
X99333179Y-34878687D01*
X99333176Y-34878686D01*
X99333175Y-34878686D01*
X99172761Y-34830025D01*
X99172759Y-34830024D01*
X99172756Y-34830023D01*
X99024922Y-34751005D01*
X98895341Y-34644659D01*
X98788995Y-34515078D01*
X98709977Y-34367244D01*
X98704442Y-34348996D01*
X98661314Y-34206825D01*
X98661314Y-34206824D01*
X98661313Y-34206821D01*
X98644883Y-34040000D01*
X98661313Y-33873179D01*
X98709977Y-33712756D01*
X98788995Y-33564922D01*
X98895341Y-33435341D01*
X99024922Y-33328995D01*
X99172756Y-33249977D01*
X99172759Y-33249976D01*
X99172761Y-33249975D01*
X99333175Y-33201314D01*
X99333176Y-33201314D01*
X99333179Y-33201313D01*
X99458196Y-33189000D01*
X99541804Y-33189000D01*
X99666821Y-33201313D01*
X99666821Y-33201313D01*
G37*
G36*
X51406821Y-31681313D02*
X51406824Y-31681314D01*
X51406825Y-31681314D01*
X51567239Y-31729975D01*
X51567241Y-31729976D01*
X51567244Y-31729977D01*
X51715078Y-31808995D01*
X51844659Y-31915341D01*
X51951005Y-32044922D01*
X52030023Y-32192756D01*
X52078687Y-32353179D01*
X52095117Y-32520000D01*
X52078687Y-32686821D01*
X52030023Y-32847244D01*
X51951005Y-32995078D01*
X51844659Y-33124659D01*
X51715078Y-33231005D01*
X51567244Y-33310023D01*
X51567241Y-33310024D01*
X51567239Y-33310025D01*
X51406825Y-33358686D01*
X51406824Y-33358686D01*
X51406821Y-33358687D01*
X51281804Y-33371000D01*
X51198196Y-33371000D01*
X51073179Y-33358687D01*
X51073176Y-33358686D01*
X51073175Y-33358686D01*
X50912761Y-33310025D01*
X50912759Y-33310024D01*
X50912756Y-33310023D01*
X50764922Y-33231005D01*
X50635341Y-33124659D01*
X50528995Y-32995078D01*
X50449977Y-32847244D01*
X50401313Y-32686821D01*
X50384883Y-32520000D01*
X50401313Y-32353179D01*
X50449977Y-32192756D01*
X50528995Y-32044922D01*
X50635341Y-31915341D01*
X50764922Y-31808995D01*
X50912756Y-31729977D01*
X50912759Y-31729976D01*
X50912761Y-31729975D01*
X51073175Y-31681314D01*
X51073176Y-31681314D01*
X51073179Y-31681313D01*
X51198196Y-31669000D01*
X51281804Y-31669000D01*
X51406821Y-31681313D01*
X51406821Y-31681313D01*
G37*
G36*
X100351000Y-32351000D02*
X98649000Y-32351000D01*
X98649000Y-30649000D01*
X100351000Y-30649000D01*
X100351000Y-32351000D01*
X100351000Y-32351000D01*
G37*
G36*
X61035786Y-24085462D02*
X61035788Y-24085463D01*
X61035789Y-24085463D01*
X61682029Y-24353144D01*
X62143323Y-24661371D01*
X62263634Y-24741760D01*
X62758240Y-25236366D01*
X62758242Y-25236369D01*
X63146856Y-25817971D01*
X63274247Y-26125521D01*
X63414538Y-26464214D01*
X63551000Y-27150256D01*
X63551000Y-27849744D01*
X63423903Y-28488707D01*
X63414537Y-28535789D01*
X63146856Y-29182029D01*
X62806551Y-29691332D01*
X62758240Y-29763634D01*
X62263634Y-30258240D01*
X62263631Y-30258242D01*
X61682029Y-30646856D01*
X61035789Y-30914537D01*
X61035788Y-30914537D01*
X61035786Y-30914538D01*
X60349744Y-31051000D01*
X59650256Y-31051000D01*
X58964214Y-30914538D01*
X58964212Y-30914537D01*
X58964211Y-30914537D01*
X58317971Y-30646856D01*
X57736369Y-30258242D01*
X57736366Y-30258240D01*
X57241760Y-29763634D01*
X57193449Y-29691332D01*
X56853144Y-29182029D01*
X56585463Y-28535789D01*
X56576098Y-28488707D01*
X56449000Y-27849744D01*
X56449000Y-27150256D01*
X56585462Y-26464214D01*
X56725753Y-26125521D01*
X56853144Y-25817971D01*
X57241758Y-25236369D01*
X57241760Y-25236366D01*
X57736366Y-24741760D01*
X57856677Y-24661371D01*
X58317971Y-24353144D01*
X58964211Y-24085463D01*
X58964212Y-24085463D01*
X58964214Y-24085462D01*
X59650256Y-23949000D01*
X60349744Y-23949000D01*
X61035786Y-24085462D01*
X61035786Y-24085462D01*
G37*
G36*
X91035786Y-24085462D02*
X91035788Y-24085463D01*
X91035789Y-24085463D01*
X91682029Y-24353144D01*
X92143323Y-24661371D01*
X92263634Y-24741760D01*
X92758240Y-25236366D01*
X92758242Y-25236369D01*
X93146856Y-25817971D01*
X93274247Y-26125521D01*
X93414538Y-26464214D01*
X93551000Y-27150256D01*
X93551000Y-27849744D01*
X93423903Y-28488707D01*
X93414537Y-28535789D01*
X93146856Y-29182029D01*
X92806551Y-29691332D01*
X92758240Y-29763634D01*
X92263634Y-30258240D01*
X92263631Y-30258242D01*
X91682029Y-30646856D01*
X91035789Y-30914537D01*
X91035788Y-30914537D01*
X91035786Y-30914538D01*
X90349744Y-31051000D01*
X89650256Y-31051000D01*
X88964214Y-30914538D01*
X88964212Y-30914537D01*
X88964211Y-30914537D01*
X88317971Y-30646856D01*
X87736369Y-30258242D01*
X87736366Y-30258240D01*
X87241760Y-29763634D01*
X87193449Y-29691332D01*
X86853144Y-29182029D01*
X86585463Y-28535789D01*
X86576098Y-28488707D01*
X86449000Y-27849744D01*
X86449000Y-27150256D01*
X86585462Y-26464214D01*
X86725753Y-26125521D01*
X86853144Y-25817971D01*
X87241758Y-25236369D01*
X87241760Y-25236366D01*
X87736366Y-24741760D01*
X87856677Y-24661371D01*
X88317971Y-24353144D01*
X88964211Y-24085463D01*
X88964212Y-24085463D01*
X88964214Y-24085462D01*
X89650256Y-23949000D01*
X90349744Y-23949000D01*
X91035786Y-24085462D01*
X91035786Y-24085462D01*
G37*
G36*
X51406821Y-29141313D02*
X51406824Y-29141314D01*
X51406825Y-29141314D01*
X51567239Y-29189975D01*
X51567241Y-29189976D01*
X51567244Y-29189977D01*
X51715078Y-29268995D01*
X51844659Y-29375341D01*
X51951005Y-29504922D01*
X52030023Y-29652756D01*
X52030024Y-29652759D01*
X52030025Y-29652761D01*
X52071602Y-29789823D01*
X52078687Y-29813179D01*
X52095117Y-29980000D01*
X52078687Y-30146821D01*
X52078686Y-30146824D01*
X52078686Y-30146825D01*
X52044889Y-30258240D01*
X52030023Y-30307244D01*
X51951005Y-30455078D01*
X51844659Y-30584659D01*
X51715078Y-30691005D01*
X51567244Y-30770023D01*
X51567241Y-30770024D01*
X51567239Y-30770025D01*
X51406825Y-30818686D01*
X51406824Y-30818686D01*
X51406821Y-30818687D01*
X51281804Y-30831000D01*
X51198196Y-30831000D01*
X51073179Y-30818687D01*
X51073176Y-30818686D01*
X51073175Y-30818686D01*
X50912761Y-30770025D01*
X50912759Y-30770024D01*
X50912756Y-30770023D01*
X50764922Y-30691005D01*
X50635341Y-30584659D01*
X50528995Y-30455078D01*
X50449977Y-30307244D01*
X50435112Y-30258240D01*
X50401314Y-30146825D01*
X50401314Y-30146824D01*
X50401313Y-30146821D01*
X50384883Y-29980000D01*
X50401313Y-29813179D01*
X50408398Y-29789823D01*
X50449975Y-29652761D01*
X50449976Y-29652759D01*
X50449977Y-29652756D01*
X50528995Y-29504922D01*
X50635341Y-29375341D01*
X50764922Y-29268995D01*
X50912756Y-29189977D01*
X50912759Y-29189976D01*
X50912761Y-29189975D01*
X51073175Y-29141314D01*
X51073176Y-29141314D01*
X51073179Y-29141313D01*
X51198196Y-29129000D01*
X51281804Y-29129000D01*
X51406821Y-29141313D01*
X51406821Y-29141313D01*
G37*
G36*
X34051000Y-29051000D02*
X30949000Y-29051000D01*
X30949000Y-25949000D01*
X34051000Y-25949000D01*
X34051000Y-29051000D01*
X34051000Y-29051000D01*
G37*
G36*
X37932527Y-25988736D02*
X38032410Y-26008604D01*
X38314674Y-26125521D01*
X38568705Y-26295259D01*
X38784741Y-26511295D01*
X38954479Y-26765326D01*
X39071396Y-27047590D01*
X39071396Y-27047591D01*
X39131000Y-27347238D01*
X39131000Y-27652762D01*
X39091818Y-27849743D01*
X39071396Y-27952410D01*
X38954479Y-28234674D01*
X38784741Y-28488705D01*
X38568705Y-28704741D01*
X38314674Y-28874479D01*
X38032410Y-28991396D01*
X37959790Y-29005841D01*
X37732762Y-29051000D01*
X37427238Y-29051000D01*
X37200210Y-29005841D01*
X37127590Y-28991396D01*
X36845326Y-28874479D01*
X36591295Y-28704741D01*
X36375259Y-28488705D01*
X36205521Y-28234674D01*
X36088604Y-27952410D01*
X36068182Y-27849743D01*
X36029000Y-27652762D01*
X36029000Y-27347238D01*
X36088604Y-27047591D01*
X36088604Y-27047590D01*
X36205521Y-26765326D01*
X36375259Y-26511295D01*
X36591295Y-26295259D01*
X36845326Y-26125521D01*
X37127590Y-26008604D01*
X37227473Y-25988736D01*
X37427238Y-25949000D01*
X37732762Y-25949000D01*
X37932527Y-25988736D01*
X37932527Y-25988736D01*
G37*
G36*
X43012527Y-25988736D02*
X43112410Y-26008604D01*
X43394674Y-26125521D01*
X43648705Y-26295259D01*
X43864741Y-26511295D01*
X44034479Y-26765326D01*
X44151396Y-27047590D01*
X44151396Y-27047591D01*
X44211000Y-27347238D01*
X44211000Y-27652762D01*
X44171818Y-27849743D01*
X44151396Y-27952410D01*
X44034479Y-28234674D01*
X43864741Y-28488705D01*
X43648705Y-28704741D01*
X43394674Y-28874479D01*
X43112410Y-28991396D01*
X43039790Y-29005841D01*
X42812762Y-29051000D01*
X42507238Y-29051000D01*
X42280210Y-29005841D01*
X42207590Y-28991396D01*
X41925326Y-28874479D01*
X41671295Y-28704741D01*
X41455259Y-28488705D01*
X41285521Y-28234674D01*
X41168604Y-27952410D01*
X41148182Y-27849743D01*
X41109000Y-27652762D01*
X41109000Y-27347238D01*
X41168604Y-27047591D01*
X41168604Y-27047590D01*
X41285521Y-26765326D01*
X41455259Y-26511295D01*
X41671295Y-26295259D01*
X41925326Y-26125521D01*
X42207590Y-26008604D01*
X42307473Y-25988736D01*
X42507238Y-25949000D01*
X42812762Y-25949000D01*
X43012527Y-25988736D01*
X43012527Y-25988736D01*
G37*
G36*
X51406821Y-26601313D02*
X51406824Y-26601314D01*
X51406825Y-26601314D01*
X51567239Y-26649975D01*
X51567241Y-26649976D01*
X51567244Y-26649977D01*
X51715078Y-26728995D01*
X51844659Y-26835341D01*
X51951005Y-26964922D01*
X52030023Y-27112756D01*
X52030024Y-27112759D01*
X52030025Y-27112761D01*
X52078686Y-27273175D01*
X52078687Y-27273179D01*
X52095117Y-27440000D01*
X52078687Y-27606821D01*
X52078686Y-27606824D01*
X52078686Y-27606825D01*
X52064752Y-27652760D01*
X52030023Y-27767244D01*
X51951005Y-27915078D01*
X51844659Y-28044659D01*
X51715078Y-28151005D01*
X51567244Y-28230023D01*
X51567241Y-28230024D01*
X51567239Y-28230025D01*
X51406825Y-28278686D01*
X51406824Y-28278686D01*
X51406821Y-28278687D01*
X51281804Y-28291000D01*
X51198196Y-28291000D01*
X51073179Y-28278687D01*
X51073176Y-28278686D01*
X51073175Y-28278686D01*
X50912761Y-28230025D01*
X50912759Y-28230024D01*
X50912756Y-28230023D01*
X50764922Y-28151005D01*
X50635341Y-28044659D01*
X50528995Y-27915078D01*
X50449977Y-27767244D01*
X50415249Y-27652760D01*
X50401314Y-27606825D01*
X50401314Y-27606824D01*
X50401313Y-27606821D01*
X50384883Y-27440000D01*
X50401313Y-27273179D01*
X50401314Y-27273175D01*
X50449975Y-27112761D01*
X50449976Y-27112759D01*
X50449977Y-27112756D01*
X50528995Y-26964922D01*
X50635341Y-26835341D01*
X50764922Y-26728995D01*
X50912756Y-26649977D01*
X50912759Y-26649976D01*
X50912761Y-26649975D01*
X51073175Y-26601314D01*
X51073176Y-26601314D01*
X51073179Y-26601313D01*
X51198196Y-26589000D01*
X51281804Y-26589000D01*
X51406821Y-26601313D01*
X51406821Y-26601313D01*
G37*
G36*
X51406821Y-24061313D02*
X51406824Y-24061314D01*
X51406825Y-24061314D01*
X51567239Y-24109975D01*
X51567241Y-24109976D01*
X51567244Y-24109977D01*
X51715078Y-24188995D01*
X51844659Y-24295341D01*
X51951005Y-24424922D01*
X52030023Y-24572756D01*
X52030024Y-24572759D01*
X52030025Y-24572761D01*
X52078686Y-24733175D01*
X52078687Y-24733179D01*
X52095117Y-24900000D01*
X52078687Y-25066821D01*
X52078686Y-25066824D01*
X52078686Y-25066825D01*
X52030609Y-25225314D01*
X52030023Y-25227244D01*
X51951005Y-25375078D01*
X51844659Y-25504659D01*
X51715078Y-25611005D01*
X51567244Y-25690023D01*
X51567241Y-25690024D01*
X51567239Y-25690025D01*
X51406825Y-25738686D01*
X51406824Y-25738686D01*
X51406821Y-25738687D01*
X51281804Y-25751000D01*
X51198196Y-25751000D01*
X51073179Y-25738687D01*
X51073176Y-25738686D01*
X51073175Y-25738686D01*
X50912761Y-25690025D01*
X50912759Y-25690024D01*
X50912756Y-25690023D01*
X50764922Y-25611005D01*
X50635341Y-25504659D01*
X50528995Y-25375078D01*
X50449977Y-25227244D01*
X50449392Y-25225314D01*
X50401314Y-25066825D01*
X50401314Y-25066824D01*
X50401313Y-25066821D01*
X50384883Y-24900000D01*
X50401313Y-24733179D01*
X50401314Y-24733175D01*
X50449975Y-24572761D01*
X50449976Y-24572759D01*
X50449977Y-24572756D01*
X50528995Y-24424922D01*
X50635341Y-24295341D01*
X50764922Y-24188995D01*
X50912756Y-24109977D01*
X50912759Y-24109976D01*
X50912761Y-24109975D01*
X51073175Y-24061314D01*
X51073176Y-24061314D01*
X51073179Y-24061313D01*
X51198196Y-24049000D01*
X51281804Y-24049000D01*
X51406821Y-24061313D01*
X51406821Y-24061313D01*
G37*
G36*
X51406821Y-21521313D02*
X51406824Y-21521314D01*
X51406825Y-21521314D01*
X51567239Y-21569975D01*
X51567241Y-21569976D01*
X51567244Y-21569977D01*
X51715078Y-21648995D01*
X51844659Y-21755341D01*
X51951005Y-21884922D01*
X52030023Y-22032756D01*
X52078687Y-22193179D01*
X52095117Y-22360000D01*
X52078687Y-22526821D01*
X52030023Y-22687244D01*
X51951005Y-22835078D01*
X51844659Y-22964659D01*
X51715078Y-23071005D01*
X51567244Y-23150023D01*
X51567241Y-23150024D01*
X51567239Y-23150025D01*
X51406825Y-23198686D01*
X51406824Y-23198686D01*
X51406821Y-23198687D01*
X51281804Y-23211000D01*
X51198196Y-23211000D01*
X51073179Y-23198687D01*
X51073176Y-23198686D01*
X51073175Y-23198686D01*
X50912761Y-23150025D01*
X50912759Y-23150024D01*
X50912756Y-23150023D01*
X50764922Y-23071005D01*
X50635341Y-22964659D01*
X50528995Y-22835078D01*
X50449977Y-22687244D01*
X50401313Y-22526821D01*
X50384883Y-22360000D01*
X50401313Y-22193179D01*
X50449977Y-22032756D01*
X50528995Y-21884922D01*
X50635341Y-21755341D01*
X50764922Y-21648995D01*
X50912756Y-21569977D01*
X50912759Y-21569976D01*
X50912761Y-21569975D01*
X51073175Y-21521314D01*
X51073176Y-21521314D01*
X51073179Y-21521313D01*
X51198196Y-21509000D01*
X51281804Y-21509000D01*
X51406821Y-21521313D01*
X51406821Y-21521313D01*
G37*
M02*
